<?xml version="1.0" encoding="UTF-8"?>
<svg id="_Слой_1" data-name="Слой 1" xmlns="http://www.w3.org/2000/svg" width="341.47" height="192" viewBox="0 0 341.47 192">
  <path d="m173.64,176h23.82c6.67,0,10-3.33,10-10v-76c0-6.67,3.33-10,10-10h23.82-23.82c-6.67,0-10,3.33-10,10v76c0,6.67-3.33,10-10,10h-23.82m10-4v8m47.65-104v8" style="fill: none; stroke: #d3d3d3;"/>
  <rect width="173.64" height="32" style="fill: #79ad51; stroke-width: 0px;"/>
  <text transform="translate(12.29 19.25)" style="fill: #fff; font-family: OpenSans-Bold, &apos;Open Sans&apos;; font-size: 13px; font-weight: 700; isolation: isolate;"><tspan x="0" y="0">Люди</tspan></text>
  <rect y="32" width="173.64" height="32" style="fill: #f2f2f2; stroke-width: 0px;"/>
  <text transform="translate(12.29 51.25)" style="fill: #6f6f6f; font-family: OpenSans-Regular, &apos;Open Sans&apos;; font-size: 13px; isolation: isolate;"><tspan x="0" y="0">ID</tspan></text>
  <rect y="64" width="173.64" height="32" style="fill: #f2f2f2; stroke-width: 0px;"/>
  <text transform="translate(12.29 83.25)" style="fill: #6f6f6f; font-family: OpenSans-Regular, &apos;Open Sans&apos;; font-size: 13px; isolation: isolate;"><tspan x="0" y="0">Имя</tspan></text>
  <rect y="96" width="173.64" height="32" style="fill: #f2f2f2; stroke-width: 0px;"/>
  <text transform="translate(12.29 115.25)" style="fill: #6f6f6f; font-family: OpenSans-Regular, &apos;Open Sans&apos;; font-size: 13px; isolation: isolate;"><tspan x="0" y="0">Фамилия</tspan></text>
  <rect y="128" width="173.64" height="32" style="fill: #f2f2f2; stroke-width: 0px;"/>
  <text transform="translate(12.29 147.25)" style="fill: #6f6f6f; font-family: OpenSans-Regular, &apos;Open Sans&apos;; font-size: 13px; isolation: isolate;"><tspan x="0" y="0">Дата рождения</tspan></text>
  <rect y="160" width="173.64" height="32" style="fill: #f2f2f2; stroke-width: 0px;"/>
  <text transform="translate(12.29 179.25)" style="fill: #6f6f6f; font-family: OpenSans-Regular, &apos;Open Sans&apos;; font-size: 13px; isolation: isolate;"><tspan x="0" y="0">Код страны рождения</tspan></text>
  <rect x="241.29" y="32" width="100.18" height="32" style="fill: #79ad51; stroke-width: 0px;"/>
  <text transform="translate(251.29 51.25)" style="fill: #fff; font-family: OpenSans-Bold, &apos;Open Sans&apos;; font-size: 13px; font-weight: 700; isolation: isolate;"><tspan x="0" y="0">Страны</tspan></text>
  <rect x="241.29" y="64" width="100.18" height="32" style="fill: #f2f2f2; stroke-width: 0px;"/>
  <text transform="translate(251.29 83.25)" style="fill: #6f6f6f; font-family: OpenSans-Regular, &apos;Open Sans&apos;; font-size: 13px; isolation: isolate;"><tspan x="0" y="0">Код страны</tspan></text>
  <rect x="241.29" y="96" width="100.18" height="32" style="fill: #f2f2f2; stroke-width: 0px;"/>
  <text transform="translate(251.29 115.25)" style="fill: #6f6f6f; font-family: OpenSans-Regular, &apos;Open Sans&apos;; font-size: 13px; isolation: isolate;"><tspan x="0" y="0">Страна</tspan></text>
  <rect x="241.29" y="128" width="100.18" height="32" style="fill: #f2f2f2; stroke-width: 0px;"/>
  <text transform="translate(251.29 147.25)" style="fill: #6f6f6f; font-family: OpenSans-Regular, &apos;Open Sans&apos;; font-size: 13px; isolation: isolate;"><tspan x="0" y="0">Столица</tspan></text>
</svg>