<?xml version="1.0" encoding="UTF-8"?>
<svg id="_Слой_1" data-name=" Слой 1" xmlns="http://www.w3.org/2000/svg" width="436.1" height="237" viewBox="0 0 436.1 237">
  <path d="m126.8,48h57.6c7.2,0,10.9,3.3,10.9,10v71c0,6.7,3.6,10,10.9,10h57.6-57.6c-7.2,0-10.9-3.3-10.9-10V58c0-6.7-3.6-10-10.9-10h-57.6m10.9-4v8m126,83l-10.9,4,10.9,4" style="fill: none; stroke: #d3d3d3;"/>
  <path d="m116,189h64.8c6,0,9-3,9-9h0c0-6,3-9,9-9h64.8-64.8c-6,0-9,3-9,9h0c0,6-3,9-9,9h-64.8m10-4v8m137.7-26l-10,4,10,4" style="fill: none; stroke: #d3d3d3;"/>
  <rect width="126.8" height="32" style="fill: #79ad51; stroke-width: 0px;"/>
  <g style="isolation: isolate;">
    <path d="m15.11,11.47c-.38,0-.71.07-1,.22-.29.15-.53.36-.73.63-.2.28-.35.61-.45,1s-.15.83-.15,1.31c0,.66.08,1.22.24,1.68.16.46.42.82.76,1.06s.79.37,1.33.37c.38,0,.75-.04,1.13-.13.38-.08.79-.21,1.23-.36v1.65c-.41.17-.81.29-1.21.37s-.84.11-1.34.11c-.96,0-1.74-.2-2.36-.59-.62-.4-1.07-.95-1.37-1.66s-.44-1.55-.44-2.5c0-.7.1-1.35.29-1.93s.47-1.09.84-1.52.82-.76,1.36-.99,1.16-.35,1.87-.35c.46,0,.92.06,1.39.17.46.12.91.28,1.33.48l-.63,1.6c-.35-.17-.7-.31-1.05-.43s-.7-.18-1.03-.18Z" style="fill: #fff; stroke-width: 0px;"/>
    <path d="m25.17,13.61h-2.32v5.64h-1.94v-5.64h-2.33v-1.45h6.59v1.45Z" style="fill: #fff; stroke-width: 0px;"/>
    <path d="m25.48,12.15h2.12l1.34,3.99c.04.13.08.26.11.39s.06.27.08.41.04.29.05.44h.04c.03-.23.06-.44.1-.64.04-.2.1-.4.17-.59l1.31-3.99h2.08l-3,8c-.18.49-.42.9-.71,1.23s-.63.58-1.01.74c-.38.17-.79.25-1.25.25-.22,0-.41-.01-.57-.04s-.3-.05-.41-.07v-1.54c.09.02.2.04.34.06s.28.03.43.03c.27,0,.5-.06.7-.17.19-.12.36-.27.49-.46s.23-.4.31-.63l.11-.35-2.82-7.05Z" style="fill: #fff; stroke-width: 0px;"/>
    <path d="m40.27,12.15v5.68h1.04v3.96h-1.74v-2.54h-4.77v2.54h-1.74v-3.96h.6c.31-.48.58-1.02.79-1.64.21-.61.39-1.26.52-1.95.13-.69.23-1.38.29-2.09h5.01Zm-1.94,1.45h-1.45c-.07.52-.15,1.03-.26,1.52-.1.49-.23.96-.38,1.41-.15.45-.34.88-.56,1.3h2.65v-4.23Z" style="fill: #fff; stroke-width: 0px;"/>
    <path d="m45.45,12.02c.66,0,1.22.13,1.69.38s.84.62,1.1,1.09c.26.48.39,1.06.39,1.75v.94h-4.58c.02.55.19.97.49,1.29.31.31.73.47,1.28.47.45,0,.87-.05,1.24-.14.38-.09.76-.23,1.16-.42v1.5c-.35.17-.72.3-1.1.38-.38.08-.85.12-1.39.12-.71,0-1.34-.13-1.89-.39-.55-.26-.98-.66-1.29-1.2-.31-.54-.47-1.21-.47-2.03s.14-1.52.42-2.07c.28-.55.67-.97,1.18-1.24s1.09-.42,1.76-.42Zm.01,1.38c-.38,0-.69.12-.94.36-.25.24-.39.62-.43,1.14h2.72c0-.29-.06-.54-.16-.77-.1-.22-.25-.4-.44-.53-.2-.13-.45-.2-.75-.2Z" style="fill: #fff; stroke-width: 0px;"/>
    <path d="m52.14,12.15v2.73h2.7v-2.73h1.94v7.1h-1.94v-2.93h-2.7v2.93h-1.94v-7.1h1.94Z" style="fill: #fff; stroke-width: 0px;"/>
    <path d="m64.68,13.61h-2.32v5.64h-1.94v-5.64h-2.33v-1.45h6.59v1.45Z" style="fill: #fff; stroke-width: 0px;"/>
    <path d="m66,19.25v-7.1h1.94v2.74h.93c.72,0,1.32.08,1.79.23.47.15.82.38,1.05.7.23.31.34.7.34,1.17s-.11.85-.32,1.19-.55.6-1,.79-1.06.28-1.8.28h-2.94Zm1.94-1.34h.9c.38,0,.69-.07.93-.21s.36-.37.36-.69c0-.28-.11-.47-.33-.6s-.55-.18-.98-.18h-.87v1.68Zm5.15,1.34v-7.1h1.94v7.1h-1.94Z" style="fill: #fff; stroke-width: 0px;"/>
  </g>
  <rect y="32" width="126.8" height="32" style="fill: #f2f2f2; stroke-width: 0px;"/>
  <g style="isolation: isolate;">
    <path d="m11.27,51.25v-9.28h1.08v9.28h-1.08Z" style="fill: #6f6f6f; stroke-width: 0px;"/>
    <path d="m22.27,46.52c0,1.04-.19,1.92-.57,2.62s-.93,1.23-1.65,1.58c-.72.35-1.6.53-2.62.53h-2.52v-9.28h2.8c.94,0,1.76.17,2.44.52s1.21.85,1.58,1.53c.37.67.56,1.51.56,2.5Zm-1.14.04c0-.83-.14-1.52-.42-2.06-.28-.54-.68-.94-1.22-1.21-.54-.26-1.19-.4-1.96-.4h-1.56v7.43h1.31c1.28,0,2.24-.32,2.88-.95.64-.63.96-1.57.96-2.82Z" style="fill: #6f6f6f; stroke-width: 0px;"/>
  </g>
  <rect y="64" width="126.8" height="32" style="fill: #f2f2f2; stroke-width: 0px;"/>
  <g style="isolation: isolate;">
    <path d="m11.28,73.97h1.01v5.36c0,.2,0,.42,0,.66s-.01.47-.02.7-.02.44-.03.62c-.01.19-.02.33-.03.43h.05l5.17-7.78h1.19v9.28h-1.01v-5.3c0-.22,0-.46.01-.71s.02-.5.03-.73c.01-.24.02-.45.04-.64s.02-.33.03-.43h-.06l-5.17,7.82h-1.19v-9.28Z" style="fill: #6f6f6f; stroke-width: 0px;"/>
    <path d="m28.33,76.29v6.96h-.95v-4.53c0-.19,0-.38.02-.57.01-.19.02-.39.04-.58h-.04l-2.31,5.68h-.9l-2.25-5.68h-.04c.01.2.02.39.03.58,0,.19,0,.39,0,.61v4.49h-.96v-6.96h1.42l2.25,5.69,2.28-5.69h1.41Z" style="fill: #6f6f6f; stroke-width: 0px;"/>
    <path d="m30.86,83.25h-1.23l2.01-2.93c-.29-.06-.56-.17-.81-.33s-.45-.37-.61-.64c-.15-.27-.23-.61-.23-1.01,0-.67.22-1.18.67-1.53.45-.35,1.04-.52,1.77-.52h3.08v6.96h-1.05v-2.79h-1.76l-1.82,2.79Zm.15-4.9c0,.42.15.72.44.92s.72.3,1.27.3h1.73v-2.4h-1.91c-.54,0-.93.11-1.17.33-.24.22-.36.5-.36.85Z" style="fill: #6f6f6f; stroke-width: 0px;"/>
    <path d="m42.1,76.29v4.37c0,.08,0,.19,0,.33,0,.13-.01.28-.02.43s-.02.29-.02.43c0,.14-.01.25-.02.34l3.8-5.9h1.29v6.96h-.98v-4.27c0-.14,0-.31,0-.52s.01-.42.02-.62.01-.37.02-.48l-3.78,5.89h-1.3v-6.96h1Z" style="fill: #6f6f6f; stroke-width: 0px;"/>
    <path d="m56.78,73.37v2.82c.69.06,1.29.24,1.8.54.51.3.91.7,1.19,1.22s.43,1.12.43,1.83-.14,1.3-.41,1.82c-.27.52-.66.92-1.17,1.23-.51.3-1.12.48-1.84.54v3.02h-1.03v-3.02c-.69-.05-1.29-.23-1.8-.52-.51-.3-.91-.71-1.19-1.22-.28-.52-.43-1.13-.43-1.83s.14-1.32.41-1.83c.27-.51.67-.92,1.18-1.22.51-.3,1.13-.48,1.86-.53v-2.82h1Zm-1,3.69c-.54.05-.98.18-1.33.41s-.6.53-.77.91c-.17.38-.25.85-.25,1.38s.08,1,.25,1.39c.17.39.43.69.77.92.35.22.79.36,1.32.41v-5.42Zm1,.01v5.41c.53-.05.97-.2,1.32-.43.34-.23.6-.54.77-.92.17-.38.25-.84.25-1.37,0-.8-.19-1.43-.58-1.89s-.97-.72-1.76-.8Z" style="fill: #6f6f6f; stroke-width: 0px;"/>
    <path d="m64.64,76.18c.83,0,1.45.19,1.85.56s.6.97.6,1.78v4.73h-.77l-.2-1.03h-.05c-.19.25-.4.47-.61.64-.21.17-.46.3-.73.39-.28.09-.62.13-1.02.13-.42,0-.8-.07-1.13-.22-.33-.15-.59-.37-.77-.67-.19-.3-.28-.68-.28-1.14,0-.69.27-1.23.83-1.6.55-.37,1.39-.58,2.51-.61l1.2-.05v-.43c0-.6-.13-1.02-.39-1.26-.26-.24-.62-.36-1.09-.36-.36,0-.71.05-1.04.16-.33.11-.64.23-.94.38l-.32-.8c.31-.16.67-.3,1.08-.41.41-.11.83-.17,1.28-.17Zm1.41,3.64l-1.06.04c-.87.03-1.48.17-1.83.42s-.53.6-.53,1.06c0,.4.12.69.36.88s.56.29.96.29c.62,0,1.12-.17,1.52-.51s.59-.86.59-1.54v-.64Z" style="fill: #6f6f6f; stroke-width: 0px;"/>
    <path d="m76.61,76.29v6.96h-.95v-4.53c0-.19,0-.38.02-.57.01-.19.02-.39.04-.58h-.04l-2.31,5.68h-.9l-2.25-5.68h-.04c.01.2.02.39.03.58,0,.19,0,.39,0,.61v4.49h-.96v-6.96h1.42l2.25,5.69,2.28-5.69h1.41Z" style="fill: #6f6f6f; stroke-width: 0px;"/>
    <path d="m79.8,76.29v4.37c0,.08,0,.19,0,.33,0,.13-.01.28-.02.43s-.02.29-.02.43c0,.14-.01.25-.02.34l3.8-5.9h1.29v6.96h-.98v-4.27c0-.14,0-.31,0-.52s.01-.42.02-.62.01-.37.02-.48l-3.78,5.89h-1.3v-6.96h1Z" style="fill: #6f6f6f; stroke-width: 0px;"/>
    <path d="m92.28,83.25h-1.07v-6.07h-2.11c-.08,1.1-.19,2.03-.32,2.81-.13.78-.29,1.42-.48,1.91-.19.49-.42.85-.7,1.08-.27.23-.6.35-.97.35-.11,0-.22,0-.32-.02s-.19-.03-.26-.06v-.8c.06.02.11.03.17.04.06,0,.13.01.19.01.19,0,.36-.08.52-.24s.3-.4.43-.72c.13-.32.24-.73.35-1.22s.19-1.07.27-1.75c.08-.67.15-1.43.21-2.28h4.1v6.96Z" style="fill: #6f6f6f; stroke-width: 0px;"/>
    <path d="m95.5,76.29v4.37c0,.08,0,.19,0,.33,0,.13-.01.28-.02.43s-.02.29-.02.43c0,.14-.01.25-.02.34l3.8-5.9h1.29v6.96h-.98v-4.27c0-.14,0-.31,0-.52s.01-.42.02-.62.01-.37.02-.48l-3.78,5.89h-1.3v-6.96h1Z" style="fill: #6f6f6f; stroke-width: 0px;"/>
    <path d="m103.1,83.25h-1.23l2.01-2.93c-.29-.06-.56-.17-.81-.33s-.45-.37-.61-.64c-.15-.27-.23-.61-.23-1.01,0-.67.22-1.18.67-1.53.45-.35,1.04-.52,1.77-.52h3.08v6.96h-1.05v-2.79h-1.76l-1.82,2.79Zm.15-4.9c0,.42.15.72.44.92s.72.3,1.27.3h1.73v-2.4h-1.91c-.54,0-.93.11-1.17.33-.24.22-.36.5-.36.85Z" style="fill: #6f6f6f; stroke-width: 0px;"/>
  </g>
  <rect x="10.8" y="141" width="105.2" height="32" style="fill: #79ad51; stroke-width: 0px;"/>
  <g style="isolation: isolate;">
    <path d="m21.96,160.25v-9.28h7.34v9.28h-1.96v-7.64h-3.42v7.64h-1.97Z" style="fill: #fff; stroke-width: 0px;"/>
    <path d="m35.44,153.02c.8,0,1.45.31,1.94.93.49.62.74,1.53.74,2.74,0,.8-.12,1.48-.35,2.03s-.55.96-.96,1.24-.88.42-1.42.42c-.34,0-.64-.04-.88-.13s-.46-.2-.63-.34-.32-.28-.45-.44h-.1c.03.17.06.34.08.52s.03.35.03.52v2.86h-1.94v-10.22h1.57l.27.92h.09c.13-.19.28-.37.46-.53s.4-.29.66-.38c.26-.1.55-.14.89-.14Zm-.62,1.55c-.34,0-.61.07-.81.21s-.34.35-.44.63c-.09.28-.14.63-.15,1.06v.21c0,.46.04.84.13,1.16.09.32.23.56.44.72.21.17.49.25.85.25.3,0,.54-.08.73-.25s.33-.41.43-.73c.1-.32.14-.71.14-1.17,0-.69-.11-1.22-.32-1.57s-.55-.53-1-.53Z" style="fill: #fff; stroke-width: 0px;"/>
    <path d="m42.65,153.02c.66,0,1.22.13,1.69.38s.84.62,1.1,1.09c.26.48.39,1.06.39,1.75v.94h-4.58c.02.55.19.97.49,1.29.31.31.73.47,1.28.47.45,0,.87-.05,1.24-.14.38-.09.76-.23,1.16-.42v1.5c-.35.17-.72.3-1.1.38-.38.08-.85.12-1.39.12-.71,0-1.34-.13-1.89-.39-.55-.26-.98-.66-1.29-1.2-.31-.54-.47-1.21-.47-2.03s.14-1.52.42-2.07c.28-.55.67-.97,1.18-1.24s1.09-.42,1.76-.42Zm.01,1.38c-.38,0-.69.12-.94.36-.25.24-.39.62-.43,1.14h2.72c0-.29-.06-.54-.16-.77-.1-.22-.25-.4-.44-.53-.2-.13-.45-.2-.75-.2Z" style="fill: #fff; stroke-width: 0px;"/>
    <path d="m53.78,153.15v5.68h1.04v3.96h-1.74v-2.54h-4.77v2.54h-1.74v-3.96h.6c.31-.48.58-1.02.79-1.64.21-.61.39-1.26.52-1.95.13-.69.23-1.38.29-2.09h5.01Zm-1.94,1.45h-1.45c-.07.52-.15,1.03-.26,1.52-.1.49-.23.96-.38,1.41-.15.45-.34.88-.56,1.3h2.65v-4.23Z" style="fill: #fff; stroke-width: 0px;"/>
    <path d="m64.98,153.15v7.1h-1.81v-3.48c0-.34,0-.68.02-1.01s.03-.63.06-.91h-.04l-1.96,5.41h-1.45l-1.99-5.42h-.05c.03.28.06.59.07.91s.02.68.02,1.07v3.43h-1.8v-7.1h2.74l1.76,4.81,1.8-4.81h2.64Z" style="fill: #fff; stroke-width: 0px;"/>
    <path d="m69.93,153.02c.66,0,1.22.13,1.69.38s.84.62,1.1,1.09c.26.48.39,1.06.39,1.75v.94h-4.58c.02.55.19.97.49,1.29.31.31.73.47,1.28.47.45,0,.87-.05,1.24-.14.38-.09.76-.23,1.16-.42v1.5c-.35.17-.72.3-1.1.38-.38.08-.85.12-1.39.12-.71,0-1.34-.13-1.89-.39-.55-.26-.98-.66-1.29-1.2-.31-.54-.47-1.21-.47-2.03s.14-1.52.42-2.07c.28-.55.67-.97,1.18-1.24s1.09-.42,1.76-.42Zm.01,1.38c-.38,0-.69.12-.94.36-.25.24-.39.62-.43,1.14h2.72c0-.29-.06-.54-.16-.77-.1-.22-.25-.4-.44-.53-.2-.13-.45-.2-.75-.2Z" style="fill: #fff; stroke-width: 0px;"/>
    <path d="m80.56,154.61h-2.32v5.64h-1.94v-5.64h-2.33v-1.45h6.59v1.45Z" style="fill: #fff; stroke-width: 0px;"/>
    <path d="m81.88,160.25v-7.1h1.94v2.74h.93c.72,0,1.32.08,1.79.23.47.15.82.38,1.05.7.23.31.34.7.34,1.17s-.11.85-.32,1.19-.55.6-1,.79-1.06.28-1.8.28h-2.94Zm1.94-1.34h.9c.38,0,.69-.07.93-.21s.36-.37.36-.69c0-.28-.11-.47-.33-.6s-.55-.18-.98-.18h-.87v1.68Zm5.15,1.34v-7.1h1.94v7.1h-1.94Z" style="fill: #fff; stroke-width: 0px;"/>
  </g>
  <rect x="10.8" y="173" width="105.2" height="32" style="fill: #f2f2f2; stroke-width: 0px;"/>
  <g style="isolation: isolate;">
    <path d="m22.06,192.25v-9.28h1.08v9.28h-1.08Z" style="fill: #6f6f6f; stroke-width: 0px;"/>
    <path d="m33.06,187.52c0,1.04-.19,1.92-.57,2.62s-.93,1.23-1.65,1.58c-.72.35-1.6.53-2.62.53h-2.52v-9.28h2.8c.94,0,1.76.17,2.44.52s1.21.85,1.58,1.53c.37.67.56,1.51.56,2.5Zm-1.14.04c0-.83-.14-1.52-.42-2.06-.28-.54-.68-.94-1.22-1.21-.54-.26-1.19-.4-1.96-.4h-1.56v7.43h1.31c1.28,0,2.24-.32,2.88-.95.64-.63.96-1.57.96-2.82Z" style="fill: #6f6f6f; stroke-width: 0px;"/>
  </g>
  <rect x="10.8" y="205" width="105.2" height="32" style="fill: #f2f2f2; stroke-width: 0px;"/>
  <g style="isolation: isolate;">
    <path d="m29.09,224.25h-1.08v-4.37h-4.88v4.37h-1.08v-9.28h1.08v3.95h4.88v-3.95h1.08v9.28Z" style="fill: #6f6f6f; stroke-width: 0px;"/>
    <path d="m34.09,217.18c.83,0,1.45.19,1.85.56s.6.97.6,1.78v4.73h-.77l-.2-1.03h-.05c-.19.25-.4.47-.61.64-.21.17-.46.3-.73.39-.28.09-.62.13-1.02.13-.42,0-.8-.07-1.13-.22-.33-.15-.59-.37-.77-.67-.19-.3-.28-.68-.28-1.14,0-.69.27-1.23.83-1.6.55-.37,1.39-.58,2.51-.61l1.2-.05v-.43c0-.6-.13-1.02-.39-1.26-.26-.24-.62-.36-1.09-.36-.36,0-.71.05-1.04.16-.33.11-.64.23-.94.38l-.32-.8c.31-.16.67-.3,1.08-.41.41-.11.83-.17,1.28-.17Zm1.41,3.64l-1.06.04c-.87.03-1.48.17-1.83.42s-.53.6-.53,1.06c0,.4.12.69.36.88s.56.29.96.29c.62,0,1.12-.17,1.52-.51s.59-.86.59-1.54v-.64Z" style="fill: #6f6f6f; stroke-width: 0px;"/>
    <path d="m40.5,217.17c.52,0,.97.07,1.35.21s.67.35.88.62c.21.27.31.6.31.99,0,.42-.11.75-.34,1-.23.25-.54.43-.95.54v.05c.28.08.54.19.77.33.23.14.42.33.55.56.14.23.21.52.21.86,0,.39-.11.74-.32,1.05-.21.31-.53.56-.96.73s-.98.27-1.64.27c-.33,0-.63-.02-.93-.05s-.56-.09-.79-.16c-.24-.07-.44-.15-.62-.24v-.96c.3.14.64.27,1.04.38s.83.17,1.29.17c.36,0,.67-.04.96-.12.28-.08.51-.22.68-.4.17-.18.25-.43.25-.73,0-.28-.07-.5-.22-.68s-.37-.31-.66-.4c-.29-.09-.67-.13-1.11-.13h-.93v-.86h.77c.6,0,1.07-.08,1.43-.25s.53-.46.53-.86c0-.35-.14-.61-.41-.78-.27-.17-.67-.26-1.18-.26-.38,0-.72.04-1.01.12s-.61.19-.95.33l-.37-.84c.36-.16.74-.28,1.14-.36.4-.08.81-.12,1.24-.12Z" style="fill: #6f6f6f; stroke-width: 0px;"/>
    <path d="m50.52,219.04c0,.44-.13.78-.38,1.02s-.58.41-.98.49v.05c.44.06.81.21,1.13.47.32.25.47.64.47,1.15,0,.4-.1.75-.29,1.05s-.49.54-.9.72c-.41.17-.94.26-1.59.26h-3v-6.96h2.97c.5,0,.94.06,1.32.17.38.11.68.29.9.55s.33.6.33,1.03Zm-1.07.12c0-.33-.12-.58-.36-.74s-.64-.24-1.19-.24h-1.85v2h1.66c.57,0,1-.08,1.29-.25.29-.17.44-.42.44-.77Zm.21,3.06c0-.41-.16-.71-.47-.89-.31-.18-.76-.27-1.35-.27h-1.78v2.34h1.81c.58,0,1.03-.09,1.34-.27.31-.18.46-.48.46-.9Z" style="fill: #6f6f6f; stroke-width: 0px;"/>
    <path d="m55.06,217.18c.83,0,1.45.19,1.85.56s.6.97.6,1.78v4.73h-.77l-.2-1.03h-.05c-.19.25-.4.47-.61.64-.21.17-.46.3-.73.39-.28.09-.62.13-1.02.13-.42,0-.8-.07-1.13-.22-.33-.15-.59-.37-.77-.67-.19-.3-.28-.68-.28-1.14,0-.69.27-1.23.83-1.6.55-.37,1.39-.58,2.51-.61l1.2-.05v-.43c0-.6-.13-1.02-.39-1.26-.26-.24-.62-.36-1.09-.36-.36,0-.71.05-1.04.16-.33.11-.64.23-.94.38l-.32-.8c.31-.16.67-.3,1.08-.41.41-.11.83-.17,1.28-.17Zm1.41,3.64l-1.06.04c-.87.03-1.48.17-1.83.42s-.53.6-.53,1.06c0,.4.12.69.36.88s.56.29.96.29c.62,0,1.12-.17,1.52-.51s.59-.86.59-1.54v-.64Z" style="fill: #6f6f6f; stroke-width: 0px;"/>
    <path d="m60.74,217.29v2.92h3.88v-2.92h1.05v6.96h-1.05v-3.14h-3.88v3.14h-1.06v-6.96h1.06Z" style="fill: #6f6f6f; stroke-width: 0px;"/>
    <path d="m68.91,217.29v4.37c0,.08,0,.19,0,.33,0,.13-.01.28-.02.43s-.02.29-.02.43c0,.14-.01.25-.02.34l3.8-5.9h1.29v6.96h-.98v-4.27c0-.14,0-.31,0-.52s.01-.42.02-.62.01-.37.02-.48l-3.78,5.89h-1.3v-6.96h1Z" style="fill: #6f6f6f; stroke-width: 0px;"/>
    <path d="m78.85,217.17c.59,0,1.1.13,1.52.39s.75.63.97,1.1.34,1.02.34,1.65v.65h-4.81c.01.82.22,1.44.61,1.87.39.43.95.64,1.66.64.44,0,.83-.04,1.17-.12.34-.08.69-.2,1.05-.36v.93c-.35.16-.7.27-1.04.34-.35.07-.75.11-1.22.11-.67,0-1.25-.14-1.75-.41-.5-.27-.88-.67-1.16-1.2s-.41-1.18-.41-1.94.13-1.4.38-1.95c.25-.55.61-.97,1.07-1.27.46-.3,1-.44,1.62-.44Zm-.01.86c-.56,0-1.01.18-1.35.55-.33.37-.53.88-.6,1.54h3.68c0-.42-.07-.78-.19-1.09-.12-.32-.31-.56-.57-.74s-.58-.26-.98-.26Z" style="fill: #6f6f6f; stroke-width: 0px;"/>
  </g>
  <rect x="263.7" y="91" width="172.4" height="32" style="fill: #79ad51; stroke-width: 0px;"/>
  <g style="isolation: isolate;">
    <path d="m274.83,100.97h1.77v4.48c0,.22,0,.46,0,.73,0,.27-.02.53-.03.78-.01.26-.02.48-.03.67,0,.19-.02.32-.03.38h.04l4.29-7.05h2.35v9.28h-1.75v-4.46c0-.24,0-.5.01-.77,0-.28.02-.55.04-.81s.03-.49.04-.68.02-.32.03-.38h-.05l-4.3,7.11h-2.37v-9.28Z" style="fill: #fff; stroke-width: 0px;"/>
    <path d="m287.96,103.02c.51,0,.99.07,1.43.2.44.13.8.34,1.08.62.28.28.41.63.41,1.07s-.13.77-.39,1.02c-.26.25-.6.43-1.03.54v.06c.3.07.57.17.82.29.24.12.44.29.58.51.14.22.22.5.22.85,0,.39-.12.76-.37,1.09-.25.33-.63.6-1.15.8-.51.2-1.17.3-1.98.3-.38,0-.74-.02-1.08-.05-.34-.03-.64-.08-.92-.15s-.52-.14-.73-.24v-1.6c.29.13.65.26,1.08.37s.89.17,1.37.17c.35,0,.67-.03.96-.08.29-.05.51-.14.68-.26.17-.12.25-.28.25-.49,0-.19-.07-.35-.22-.47-.15-.12-.37-.22-.67-.28-.3-.06-.68-.09-1.13-.09h-.75v-1.34h.71c.64,0,1.14-.05,1.49-.16.35-.11.53-.3.53-.58,0-.23-.11-.4-.34-.51-.22-.11-.59-.17-1.11-.17-.33,0-.7.04-1.1.12-.4.08-.78.19-1.13.33l-.57-1.35c.41-.16.86-.28,1.34-.38s1.05-.15,1.72-.15Z" style="fill: #fff; stroke-width: 0px;"/>
    <path d="m291.58,103.15h2.12l1.34,3.99c.04.13.08.26.11.39.03.13.06.27.08.41.02.14.04.29.05.44h.04c.03-.23.06-.44.1-.64.04-.2.1-.4.17-.59l1.31-3.99h2.08l-3,8c-.18.49-.42.9-.71,1.23s-.63.58-1.01.74c-.38.17-.79.25-1.25.25-.22,0-.41-.01-.57-.04-.16-.02-.3-.05-.41-.07v-1.54c.09.02.2.04.34.06.13.02.28.03.42.03.27,0,.5-.06.7-.17.2-.12.36-.27.49-.46.13-.19.23-.4.31-.63l.11-.35-2.82-7.05Z" style="fill: #fff; stroke-width: 0px;"/>
    <path d="m301.69,103.15v2.6c0,.31.08.54.23.69.15.15.36.23.63.23.37,0,.72-.04,1.04-.13.32-.08.64-.19.97-.33v-3.07h1.94v7.1h-1.94v-2.82c-.31.16-.66.31-1.04.44-.39.14-.83.2-1.32.2-.74,0-1.33-.19-1.77-.57-.44-.38-.66-.95-.66-1.72v-2.64h1.94Z" style="fill: #fff; stroke-width: 0px;"/>
    <path d="m311.42,103.01c.95,0,1.68.21,2.19.62.51.42.76,1.05.76,1.89v4.73h-1.35l-.37-.96h-.05c-.2.25-.41.46-.62.62-.21.16-.46.28-.73.36-.27.08-.61.11-1,.11-.42,0-.79-.08-1.13-.24-.33-.16-.59-.41-.78-.74s-.29-.75-.29-1.27c0-.75.26-1.31.79-1.67.53-.36,1.32-.56,2.38-.59l1.23-.04v-.31c0-.37-.1-.65-.29-.82-.19-.17-.46-.26-.81-.26s-.68.05-1.01.15-.66.22-.99.37l-.64-1.31c.38-.2.8-.36,1.27-.47s.95-.17,1.45-.17Zm1.03,3.95l-.75.03c-.63.02-1.06.13-1.3.34-.24.21-.36.48-.36.82,0,.3.09.51.26.63.17.12.4.19.68.19.41,0,.76-.12,1.05-.37.29-.25.43-.59.43-1.05v-.58Z" style="fill: #fff; stroke-width: 0px;"/>
    <path d="m319.29,103.02c.66,0,1.22.13,1.7.38.47.25.84.62,1.1,1.09.26.48.39,1.06.39,1.75v.94h-4.58c.02.55.19.97.49,1.29.31.31.73.47,1.28.47.45,0,.87-.05,1.24-.14.38-.09.76-.23,1.16-.42v1.5c-.35.17-.72.3-1.1.38-.38.08-.85.12-1.39.12-.71,0-1.34-.13-1.89-.39s-.98-.66-1.29-1.2c-.31-.54-.47-1.21-.47-2.03s.14-1.52.42-2.07c.28-.55.67-.97,1.18-1.24.5-.28,1.09-.42,1.76-.42Zm.01,1.38c-.38,0-.69.12-.94.36-.25.24-.39.62-.43,1.14h2.72c0-.29-.06-.54-.16-.77-.1-.22-.25-.4-.44-.53-.2-.13-.45-.2-.75-.2Z" style="fill: #fff; stroke-width: 0px;"/>
    <path d="m332.99,103.15v7.1h-1.81v-3.48c0-.34,0-.68.02-1.01s.03-.63.06-.91h-.04l-1.96,5.41h-1.45l-1.99-5.42h-.05c.03.28.06.59.07.91s.02.68.02,1.07v3.43h-1.8v-7.1h2.74l1.76,4.81,1.8-4.81h2.64Z" style="fill: #fff; stroke-width: 0px;"/>
    <path d="m335.02,110.25v-7.1h1.94v2.74h.93c.72,0,1.32.08,1.79.23.47.15.82.38,1.05.7.23.31.34.7.34,1.17s-.11.85-.32,1.19c-.21.34-.55.6-1,.79s-1.06.28-1.8.28h-2.94Zm1.94-1.34h.89c.38,0,.69-.07.93-.21s.36-.37.36-.69c0-.28-.11-.47-.33-.6-.22-.12-.55-.18-.98-.18h-.87v1.68Zm5.15,1.34v-7.1h1.94v7.1h-1.94Z" style="fill: #fff; stroke-width: 0px;"/>
    <path d="m349,103.02c.66,0,1.22.13,1.7.38.47.25.84.62,1.1,1.09.26.48.39,1.06.39,1.75v.94h-4.58c.02.55.19.97.49,1.29.31.31.73.47,1.28.47.45,0,.87-.05,1.24-.14.38-.09.76-.23,1.16-.42v1.5c-.35.17-.72.3-1.1.38-.38.08-.85.12-1.39.12-.71,0-1.34-.13-1.89-.39s-.98-.66-1.29-1.2c-.31-.54-.47-1.21-.47-2.03s.14-1.52.42-2.07c.28-.55.67-.97,1.18-1.24.5-.28,1.09-.42,1.76-.42Zm.01,1.38c-.38,0-.69.12-.94.36-.25.24-.39.62-.43,1.14h2.72c0-.29-.06-.54-.16-.77-.1-.22-.25-.4-.44-.53-.2-.13-.45-.2-.75-.2Z" style="fill: #fff; stroke-width: 0px;"/>
    <path d="m363.58,103.15v7.1h-1.94v-5.64h-2.57v5.64h-1.94v-7.1h6.45Z" style="fill: #fff; stroke-width: 0px;"/>
    <path d="m369.55,103.02c.8,0,1.45.31,1.94.93s.74,1.53.74,2.74c0,.8-.12,1.48-.35,2.03-.23.55-.55.96-.96,1.24-.41.28-.88.42-1.42.42-.34,0-.64-.04-.88-.13-.25-.09-.46-.2-.63-.34-.17-.14-.32-.28-.45-.44h-.1c.03.17.06.34.08.52.02.18.03.35.03.52v2.86h-1.94v-10.22h1.57l.27.92h.09c.13-.19.28-.37.46-.53.18-.16.4-.29.66-.38.26-.1.55-.14.89-.14Zm-.62,1.55c-.34,0-.61.07-.81.21-.2.14-.34.35-.44.63-.09.28-.14.63-.15,1.06v.21c0,.46.04.84.13,1.16s.23.56.44.72c.21.17.49.25.85.25.3,0,.54-.08.73-.25s.33-.41.43-.73c.1-.32.14-.71.14-1.17,0-.69-.11-1.22-.32-1.57s-.55-.53-1-.53Z" style="fill: #fff; stroke-width: 0px;"/>
    <path d="m376.76,103.02c.66,0,1.22.13,1.69.38.47.25.84.62,1.1,1.09.26.48.39,1.06.39,1.75v.94h-4.58c.02.55.18.97.49,1.29.31.31.73.47,1.28.47.45,0,.87-.05,1.24-.14.38-.09.76-.23,1.16-.42v1.5c-.35.17-.72.3-1.1.38-.38.08-.85.12-1.39.12-.71,0-1.34-.13-1.89-.39-.55-.26-.98-.66-1.29-1.2-.31-.54-.47-1.21-.47-2.03s.14-1.52.42-2.07c.28-.55.67-.97,1.18-1.24.5-.28,1.09-.42,1.76-.42Zm.01,1.38c-.38,0-.69.12-.94.36-.25.24-.39.62-.43,1.14h2.72c0-.29-.06-.54-.16-.77-.1-.22-.25-.4-.44-.53-.2-.13-.45-.2-.75-.2Z" style="fill: #fff; stroke-width: 0px;"/>
    <path d="m387.89,103.15v5.68h1.04v3.96h-1.74v-2.54h-4.77v2.54h-1.74v-3.96h.6c.31-.48.58-1.02.79-1.64.21-.61.39-1.26.52-1.95.13-.69.23-1.38.29-2.09h5.01Zm-1.94,1.45h-1.45c-.07.52-.15,1.03-.26,1.52-.1.49-.23.96-.38,1.41-.15.45-.34.88-.56,1.3h2.65v-4.23Z" style="fill: #fff; stroke-width: 0px;"/>
    <path d="m399.09,103.15v7.1h-1.81v-3.48c0-.34,0-.68.02-1.01s.03-.63.06-.91h-.04l-1.96,5.41h-1.45l-1.99-5.42h-.05c.03.28.06.59.07.91s.02.68.02,1.07v3.43h-1.8v-7.1h2.74l1.76,4.81,1.8-4.81h2.64Z" style="fill: #fff; stroke-width: 0px;"/>
    <path d="m404.05,103.02c.66,0,1.22.13,1.7.38.47.25.84.62,1.1,1.09.26.48.39,1.06.39,1.75v.94h-4.58c.02.55.19.97.49,1.29.31.31.73.47,1.28.47.45,0,.87-.05,1.24-.14.38-.09.76-.23,1.16-.42v1.5c-.35.17-.72.3-1.1.38-.38.08-.85.12-1.39.12-.71,0-1.34-.13-1.89-.39s-.98-.66-1.29-1.2c-.31-.54-.47-1.21-.47-2.03s.14-1.52.42-2.07c.28-.55.67-.97,1.18-1.24.5-.28,1.09-.42,1.76-.42Zm.01,1.38c-.38,0-.69.12-.94.36-.25.24-.39.62-.43,1.14h2.72c0-.29-.06-.54-.16-.77-.1-.22-.25-.4-.44-.53-.2-.13-.45-.2-.75-.2Z" style="fill: #fff; stroke-width: 0px;"/>
    <path d="m414.67,104.61h-2.32v5.64h-1.94v-5.64h-2.33v-1.45h6.59v1.45Z" style="fill: #fff; stroke-width: 0px;"/>
    <path d="m415.99,110.25v-7.1h1.94v2.74h.93c.72,0,1.32.08,1.79.23.47.15.82.38,1.05.7.23.31.34.7.34,1.17s-.11.85-.32,1.19c-.21.34-.55.6-1,.79s-1.06.28-1.8.28h-2.94Zm1.94-1.34h.89c.38,0,.69-.07.93-.21s.36-.37.36-.69c0-.28-.11-.47-.33-.6-.22-.12-.55-.18-.98-.18h-.87v1.68Zm5.15,1.34v-7.1h1.94v7.1h-1.94Z" style="fill: #fff; stroke-width: 0px;"/>
  </g>
  <rect x="263.7" y="123" width="172.4" height="32" style="fill: #f2f2f2; stroke-width: 0px;"/>
  <g style="isolation: isolate;">
    <path d="m274.93,142.25v-9.28h1.08v9.28h-1.08Z" style="fill: #6f6f6f; stroke-width: 0px;"/>
    <path d="m285.93,137.52c0,1.04-.19,1.92-.57,2.62s-.93,1.23-1.65,1.58-1.6.53-2.62.53h-2.52v-9.28h2.8c.94,0,1.76.17,2.44.52.68.34,1.21.85,1.58,1.53.37.67.55,1.51.55,2.5Zm-1.14.04c0-.83-.14-1.52-.42-2.06s-.68-.94-1.22-1.21-1.19-.4-1.96-.4h-1.55v7.43h1.31c1.28,0,2.24-.32,2.88-.95.64-.63.96-1.57.96-2.82Z" style="fill: #6f6f6f; stroke-width: 0px;"/>
    <path d="m294,142.38c-.63,0-1.18-.13-1.66-.39-.48-.26-.85-.65-1.12-1.18-.27-.53-.4-1.2-.4-2s.14-1.53.42-2.07.67-.93,1.17-1.19c.5-.26,1.06-.39,1.69-.39.35,0,.68.04,1.01.1.32.07.59.16.8.26l-.32.88c-.21-.08-.46-.16-.73-.23-.28-.07-.54-.1-.78-.1-.48,0-.88.1-1.2.31s-.56.51-.72.91c-.16.4-.24.9-.24,1.49s.08,1.04.23,1.44c.15.4.38.7.69.91.31.21.69.31,1.15.31.37,0,.7-.04,1-.12.3-.08.56-.17.81-.28v.94c-.23.12-.49.21-.78.27-.29.06-.62.1-1.02.1Z" style="fill: #6f6f6f; stroke-width: 0px;"/>
    <path d="m302.18,136.19h-2.29v6.06h-1.04v-6.06h-2.26v-.89h5.59v.89Z" style="fill: #6f6f6f; stroke-width: 0px;"/>
    <path d="m302.46,135.29h1.13l1.54,4.04c.09.24.17.46.25.68s.14.43.2.62c.06.2.11.39.14.58h.04c.06-.21.14-.49.25-.83.11-.34.23-.7.36-1.06l1.45-4.03h1.14l-3.03,7.98c-.16.43-.35.8-.56,1.12-.21.32-.47.56-.78.73-.3.17-.67.26-1.1.26-.2,0-.37-.01-.53-.03s-.28-.05-.39-.08v-.84c.09.02.21.04.34.06.13.02.27.03.42.03.26,0,.49-.05.68-.15s.36-.25.5-.43c.14-.19.26-.42.36-.68l.38-.98-2.79-6.97Z" style="fill: #6f6f6f; stroke-width: 0px;"/>
    <path d="m315.17,135.29v6.06h1v3.3h-1.02v-2.41h-4.93v2.41h-1.01v-3.3h.55c.4-.55.73-1.15.99-1.81.26-.66.46-1.34.6-2.07.13-.72.21-1.45.22-2.19h3.61Zm-1.02.84h-1.65c-.04.62-.13,1.25-.27,1.88-.14.64-.33,1.25-.56,1.83-.23.58-.5,1.08-.81,1.51h3.29v-5.22Z" style="fill: #6f6f6f; stroke-width: 0px;"/>
    <path d="m320.22,135.17c.59,0,1.1.13,1.52.39.42.26.75.63.97,1.1.22.47.34,1.02.34,1.65v.65h-4.8c.01.82.22,1.44.61,1.87.39.43.95.64,1.66.64.44,0,.83-.04,1.17-.12.34-.08.69-.2,1.05-.36v.93c-.35.16-.7.27-1.04.34-.35.07-.75.11-1.22.11-.67,0-1.25-.14-1.75-.41-.5-.27-.88-.67-1.16-1.2-.27-.53-.41-1.18-.41-1.94s.13-1.4.38-1.95c.25-.55.61-.97,1.07-1.27.46-.3,1-.44,1.62-.44Zm-.01.86c-.56,0-1.01.18-1.35.55-.33.37-.53.88-.6,1.54h3.68c0-.42-.07-.78-.19-1.09s-.31-.56-.57-.74-.58-.26-.98-.26Z" style="fill: #6f6f6f; stroke-width: 0px;"/>
    <path d="m325.9,135.29v2.92h3.88v-2.92h1.05v6.96h-1.05v-3.14h-3.88v3.14h-1.06v-6.96h1.06Z" style="fill: #6f6f6f; stroke-width: 0px;"/>
    <path d="m337.81,136.19h-2.29v6.06h-1.04v-6.06h-2.26v-.89h5.59v.89Z" style="fill: #6f6f6f; stroke-width: 0px;"/>
    <path d="m341.79,135.18c.83,0,1.45.19,1.85.56.4.37.6.97.6,1.78v4.73h-.77l-.2-1.03h-.05c-.2.25-.4.47-.61.64-.21.17-.46.3-.73.39s-.62.13-1.02.13c-.42,0-.8-.07-1.13-.22-.33-.15-.59-.37-.77-.67-.19-.3-.28-.68-.28-1.14,0-.69.27-1.23.83-1.6.55-.37,1.39-.58,2.51-.61l1.2-.05v-.43c0-.6-.13-1.02-.39-1.26-.26-.24-.62-.36-1.09-.36-.36,0-.71.05-1.04.16-.33.11-.64.23-.94.38l-.32-.8c.31-.16.67-.3,1.08-.41.41-.11.83-.17,1.28-.17Zm1.41,3.64l-1.06.04c-.87.03-1.48.17-1.83.42s-.53.6-.53,1.06c0,.4.12.69.36.88s.56.29.96.29c.62,0,1.12-.17,1.52-.51s.59-.86.59-1.54v-.64Z" style="fill: #6f6f6f; stroke-width: 0px;"/>
  </g>
  <rect x="263.7" y="155" width="172.4" height="32" style="fill: #f2f2f2; stroke-width: 0px;"/>
  <g style="isolation: isolate;">
    <path d="m274.93,174.25v-9.28h1.08v9.28h-1.08Z" style="fill: #6f6f6f; stroke-width: 0px;"/>
    <path d="m285.93,169.52c0,1.04-.19,1.92-.57,2.62s-.93,1.23-1.65,1.58-1.6.53-2.62.53h-2.52v-9.28h2.8c.94,0,1.76.17,2.44.52.68.34,1.21.85,1.58,1.53.37.67.55,1.51.55,2.5Zm-1.14.04c0-.83-.14-1.52-.42-2.06s-.68-.94-1.22-1.21-1.19-.4-1.96-.4h-1.55v7.43h1.31c1.28,0,2.24-.32,2.88-.95.64-.63.96-1.57.96-2.82Z" style="fill: #6f6f6f; stroke-width: 0px;"/>
    <path d="m297.04,167.29v6.96h-1.06v-6.05h-3.71v6.05h-1.06v-6.96h5.83Z" style="fill: #6f6f6f; stroke-width: 0px;"/>
    <path d="m302.54,167.17c.87,0,1.56.3,2.08.89.52.6.77,1.49.77,2.69,0,.79-.12,1.46-.36,1.99-.24.54-.57.94-1,1.22-.43.27-.94.41-1.52.41-.37,0-.69-.05-.97-.15-.28-.1-.52-.23-.72-.39-.2-.17-.36-.35-.5-.54h-.08c.01.17.03.36.05.6.02.23.03.44.03.61v2.86h-1.06v-10.07h.87l.14,1.03h.05c.13-.21.3-.41.5-.58.19-.18.43-.32.71-.42s.61-.16,1-.16Zm-.18.89c-.48,0-.87.09-1.16.28-.29.19-.51.46-.64.83-.14.37-.21.83-.22,1.39v.2c0,.59.06,1.08.19,1.49s.34.71.64.93c.3.21.7.32,1.2.32.43,0,.79-.12,1.08-.35.29-.23.5-.56.64-.97s.21-.9.21-1.44c0-.82-.16-1.47-.48-1.96s-.81-.73-1.47-.73Z" style="fill: #6f6f6f; stroke-width: 0px;"/>
    <path d="m309.91,167.17c.59,0,1.1.13,1.52.39.42.26.75.63.97,1.1.22.47.34,1.02.34,1.65v.65h-4.81c.01.82.22,1.44.61,1.87.39.43.95.64,1.66.64.44,0,.83-.04,1.17-.12.34-.08.69-.2,1.05-.36v.93c-.35.16-.7.27-1.04.34-.34.07-.75.11-1.22.11-.67,0-1.25-.14-1.75-.41-.5-.27-.88-.67-1.16-1.2-.28-.53-.41-1.18-.41-1.94s.13-1.4.38-1.95.61-.97,1.07-1.27,1-.44,1.62-.44Zm-.01.86c-.56,0-1.01.18-1.35.55-.33.37-.53.88-.6,1.54h3.68c0-.42-.07-.78-.19-1.09-.12-.32-.31-.56-.57-.74s-.58-.26-.98-.26Z" style="fill: #6f6f6f; stroke-width: 0px;"/>
    <path d="m319.62,167.29v6.06h1v3.3h-1.02v-2.41h-4.93v2.41h-1.01v-3.3h.55c.4-.55.73-1.15.99-1.81.26-.66.46-1.34.6-2.07.13-.72.21-1.45.22-2.19h3.61Zm-1.02.84h-1.65c-.04.62-.13,1.25-.27,1.88-.14.64-.33,1.25-.56,1.83-.23.58-.5,1.08-.81,1.51h3.29v-5.22Z" style="fill: #6f6f6f; stroke-width: 0px;"/>
    <path d="m329.34,167.29v6.96h-.95v-4.53c0-.19,0-.38.02-.57s.02-.39.04-.58h-.04l-2.31,5.68h-.89l-2.25-5.68h-.04c.01.2.02.39.03.58,0,.19,0,.39,0,.61v4.49h-.96v-6.96h1.42l2.25,5.69,2.28-5.69h1.41Z" style="fill: #6f6f6f; stroke-width: 0px;"/>
    <path d="m334.21,167.17c.59,0,1.1.13,1.52.39.42.26.75.63.97,1.1.22.47.34,1.02.34,1.65v.65h-4.8c.01.82.22,1.44.61,1.87.39.43.95.64,1.66.64.44,0,.83-.04,1.17-.12.34-.08.69-.2,1.05-.36v.93c-.35.16-.7.27-1.04.34-.35.07-.75.11-1.22.11-.67,0-1.25-.14-1.75-.41-.5-.27-.88-.67-1.16-1.2-.27-.53-.41-1.18-.41-1.94s.13-1.4.38-1.95c.25-.55.61-.97,1.07-1.27.46-.3,1-.44,1.62-.44Zm-.01.86c-.56,0-1.01.18-1.35.55-.33.37-.53.88-.6,1.54h3.68c0-.42-.07-.78-.19-1.09s-.31-.56-.57-.74-.58-.26-.98-.26Z" style="fill: #6f6f6f; stroke-width: 0px;"/>
    <path d="m343.57,168.19h-2.29v6.06h-1.04v-6.06h-2.26v-.89h5.59v.89Z" style="fill: #6f6f6f; stroke-width: 0px;"/>
    <path d="m347.55,167.18c.83,0,1.45.19,1.85.56.4.37.6.97.6,1.78v4.73h-.77l-.2-1.03h-.05c-.2.25-.4.47-.61.64-.21.17-.46.3-.73.39s-.62.13-1.02.13c-.42,0-.8-.07-1.13-.22-.33-.15-.59-.37-.77-.67-.19-.3-.28-.68-.28-1.14,0-.69.27-1.23.83-1.6.55-.37,1.39-.58,2.51-.61l1.2-.05v-.43c0-.6-.13-1.02-.39-1.26-.26-.24-.62-.36-1.09-.36-.36,0-.71.05-1.04.16-.33.11-.64.23-.94.38l-.32-.8c.31-.16.67-.3,1.08-.41.41-.11.83-.17,1.28-.17Zm1.41,3.64l-1.06.04c-.87.03-1.48.17-1.83.42s-.53.6-.53,1.06c0,.4.12.69.36.88s.56.29.96.29c.62,0,1.12-.17,1.52-.51s.59-.86.59-1.54v-.64Z" style="fill: #6f6f6f; stroke-width: 0px;"/>
  </g>
</svg>