<?xml version="1.0" encoding="UTF-8"?>
<svg id="_Слой_1" data-name="Слой 1" xmlns="http://www.w3.org/2000/svg" width="346.4" height="128" viewBox="0 0 346.4 128">
  <path d="m127.5,112h17.1c6.7,0,10-3.3,10-10v-44c0-6.7,3.3-10,10-10h17.1-17.1c-6.7,0-10,3.3-10,10v44c0,6.7-3.3,10-10,10h-17.1m10-4v8m34.3-72v8" style="fill: none; stroke: #d3d3d3;"/>
  <rect width="127.5" height="32" style="fill: #79ad51; stroke-width: 0px;"/>
  <g style="isolation: isolate;">
    <path d="m18.11,19.25h-1.96v-7.64h-2.27c-.05.4-.11.83-.17,1.3-.06.47-.12.94-.18,1.42-.06.48-.13.93-.2,1.37-.07.43-.14.81-.21,1.14-.11.54-.26,1-.45,1.38-.19.38-.44.67-.77.87-.32.2-.75.3-1.27.3-.17,0-.34-.01-.5-.04-.16-.03-.31-.06-.44-.1v-1.61c.11.04.22.07.33.09s.23.04.36.04c.17,0,.31-.06.42-.17.11-.11.21-.3.3-.58.09-.27.18-.65.27-1.13.04-.21.09-.51.15-.9.06-.39.14-.84.22-1.36s.16-1.09.25-1.71c.09-.62.17-1.26.25-1.93h5.86v9.28Z" style="fill: #fff; stroke-width: 0px;"/>
    <path d="m30.1,15.69c0,.79-.13,1.46-.4,2.01-.27.55-.65.97-1.15,1.25-.5.29-1.09.43-1.77.43-.58,0-1.11-.11-1.57-.33s-.84-.56-1.13-1.01c-.29-.45-.48-1.02-.56-1.72h-1.28v2.93h-1.94v-7.1h1.94v2.73h1.3c.09-.62.28-1.14.57-1.56.29-.43.67-.75,1.13-.97.46-.22.99-.33,1.58-.33.64,0,1.21.14,1.7.43.49.28.88.7,1.16,1.24s.43,1.21.43,2Zm-4.64,0c0,.46.05.86.14,1.17.09.32.24.56.43.72.2.16.45.24.77.24s.57-.08.76-.24c.19-.16.34-.4.43-.72.09-.32.14-.71.14-1.17s-.05-.86-.14-1.17c-.09-.31-.24-.54-.43-.7-.2-.16-.45-.23-.77-.23s-.57.08-.76.23-.34.39-.43.7c-.09.31-.14.7-.14,1.17Z" style="fill: #fff; stroke-width: 0px;"/>
    <path d="m38.08,12.15v5.68h1.04v3.96h-1.74v-2.54h-4.77v2.54h-1.74v-3.96h.6c.31-.48.58-1.02.79-1.64.21-.61.39-1.26.52-1.95.13-.69.23-1.38.29-2.09h5.01Zm-1.94,1.45h-1.45c-.07.52-.15,1.03-.26,1.52-.1.49-.23.96-.38,1.41-.15.45-.34.88-.56,1.3h2.65v-4.23Z" style="fill: #fff; stroke-width: 0px;"/>
    <path d="m42.2,12.15v2.81c0,.14,0,.33-.02.54-.01.22-.02.44-.04.66s-.03.42-.05.6-.03.3-.04.36l3.28-4.98h2.33v7.1h-1.87v-2.83c0-.23,0-.49.03-.77s.04-.55.06-.8c.02-.25.04-.44.04-.57l-3.26,4.96h-2.32v-7.1h1.87Z" style="fill: #fff; stroke-width: 0px;"/>
  </g>
  <rect y="32" width="127.5" height="32" style="fill: #f2f2f2; stroke-width: 0px;"/>
  <g style="isolation: isolate;">
    <path d="m10.86,51.25v-9.28h1.08v9.28h-1.08Z" style="fill: #6f6f6f; stroke-width: 0px;"/>
    <path d="m21.86,46.52c0,1.04-.19,1.92-.57,2.62s-.93,1.23-1.65,1.58c-.72.35-1.6.53-2.62.53h-2.52v-9.28h2.8c.94,0,1.76.17,2.44.52s1.21.85,1.58,1.53c.37.67.56,1.51.56,2.5Zm-1.14.04c0-.83-.14-1.52-.42-2.06-.28-.54-.68-.94-1.22-1.21-.54-.26-1.19-.4-1.96-.4h-1.56v7.43h1.31c1.28,0,2.24-.32,2.88-.95.64-.63.96-1.57.96-2.82Z" style="fill: #6f6f6f; stroke-width: 0px;"/>
  </g>
  <rect y="64" width="127.5" height="32" style="fill: #f2f2f2; stroke-width: 0px;"/>
  <g style="isolation: isolate;">
    <path d="m10.88,73.97h1.01v5.36c0,.2,0,.42,0,.66s-.01.47-.02.7-.02.44-.03.62c-.01.19-.02.33-.03.43h.05l5.17-7.78h1.19v9.28h-1.01v-5.3c0-.22,0-.46.01-.71s.02-.5.03-.73c.01-.24.02-.45.04-.64s.02-.33.03-.43h-.06l-5.17,7.82h-1.19v-9.28Z" style="fill: #6f6f6f; stroke-width: 0px;"/>
    <path d="m27.93,76.29v6.96h-.95v-4.53c0-.19,0-.38.02-.57.01-.19.02-.39.04-.58h-.04l-2.31,5.68h-.9l-2.25-5.68h-.04c.01.2.02.39.03.58,0,.19,0,.39,0,.61v4.49h-.96v-6.96h1.42l2.25,5.69,2.28-5.69h1.41Z" style="fill: #6f6f6f; stroke-width: 0px;"/>
    <path d="m30.45,83.25h-1.23l2.01-2.93c-.29-.06-.56-.17-.81-.33s-.45-.37-.61-.64c-.15-.27-.23-.61-.23-1.01,0-.67.22-1.18.67-1.53.45-.35,1.04-.52,1.77-.52h3.08v6.96h-1.05v-2.79h-1.76l-1.82,2.79Zm.15-4.9c0,.42.15.72.44.92s.72.3,1.27.3h1.73v-2.4h-1.91c-.54,0-.93.11-1.17.33-.24.22-.36.5-.36.85Z" style="fill: #6f6f6f; stroke-width: 0px;"/>
    <path d="m41.69,76.29v4.37c0,.08,0,.19,0,.33,0,.13-.01.28-.02.43s-.02.29-.02.43c0,.14-.01.25-.02.34l3.8-5.9h1.29v6.96h-.98v-4.27c0-.14,0-.31,0-.52s.01-.42.02-.62.01-.37.02-.48l-3.78,5.89h-1.3v-6.96h1Z" style="fill: #6f6f6f; stroke-width: 0px;"/>
    <path d="m56.38,73.37v2.82c.69.06,1.29.24,1.8.54.51.3.91.7,1.19,1.22s.43,1.12.43,1.83-.14,1.3-.41,1.82c-.27.52-.66.92-1.17,1.23-.51.3-1.12.48-1.84.54v3.02h-1.03v-3.02c-.69-.05-1.29-.23-1.8-.52-.51-.3-.91-.71-1.19-1.22-.28-.52-.43-1.13-.43-1.83s.14-1.32.41-1.83c.27-.51.67-.92,1.18-1.22.51-.3,1.13-.48,1.86-.53v-2.82h1Zm-1,3.69c-.54.05-.98.18-1.33.41s-.6.53-.77.91c-.17.38-.25.85-.25,1.38s.08,1,.25,1.39c.17.39.43.69.77.92.35.22.79.36,1.32.41v-5.42Zm1,.01v5.41c.53-.05.97-.2,1.32-.43.34-.23.6-.54.77-.92.17-.38.25-.84.25-1.37,0-.8-.19-1.43-.58-1.89s-.97-.72-1.76-.8Z" style="fill: #6f6f6f; stroke-width: 0px;"/>
    <path d="m64.24,76.18c.83,0,1.45.19,1.85.56s.6.97.6,1.78v4.73h-.77l-.2-1.03h-.05c-.19.25-.4.47-.61.64-.21.17-.46.3-.73.39-.28.09-.62.13-1.02.13-.42,0-.8-.07-1.13-.22-.33-.15-.59-.37-.77-.67-.19-.3-.28-.68-.28-1.14,0-.69.27-1.23.83-1.6.55-.37,1.39-.58,2.51-.61l1.2-.05v-.43c0-.6-.13-1.02-.39-1.26-.26-.24-.62-.36-1.09-.36-.36,0-.71.05-1.04.16-.33.11-.64.23-.94.38l-.32-.8c.31-.16.67-.3,1.08-.41.41-.11.83-.17,1.28-.17Zm1.41,3.64l-1.06.04c-.87.03-1.48.17-1.83.42s-.53.6-.53,1.06c0,.4.12.69.36.88s.56.29.96.29c.62,0,1.12-.17,1.52-.51s.59-.86.59-1.54v-.64Z" style="fill: #6f6f6f; stroke-width: 0px;"/>
    <path d="m76.2,76.29v6.96h-.95v-4.53c0-.19,0-.38.02-.57.01-.19.02-.39.04-.58h-.04l-2.31,5.68h-.9l-2.25-5.68h-.04c.01.2.02.39.03.58,0,.19,0,.39,0,.61v4.49h-.96v-6.96h1.42l2.25,5.69,2.28-5.69h1.41Z" style="fill: #6f6f6f; stroke-width: 0px;"/>
    <path d="m79.39,76.29v4.37c0,.08,0,.19,0,.33,0,.13-.01.28-.02.43s-.02.29-.02.43c0,.14-.01.25-.02.34l3.8-5.9h1.29v6.96h-.98v-4.27c0-.14,0-.31,0-.52s.01-.42.02-.62.01-.37.02-.48l-3.78,5.89h-1.3v-6.96h1Z" style="fill: #6f6f6f; stroke-width: 0px;"/>
    <path d="m91.87,83.25h-1.07v-6.07h-2.11c-.08,1.1-.19,2.03-.32,2.81-.13.78-.29,1.42-.48,1.91-.19.49-.42.85-.7,1.08-.27.23-.6.35-.97.35-.11,0-.22,0-.32-.02s-.19-.03-.26-.06v-.8c.06.02.11.03.17.04.06,0,.13.01.19.01.19,0,.36-.08.52-.24s.3-.4.43-.72c.13-.32.24-.73.35-1.22s.19-1.07.27-1.75c.08-.67.15-1.43.21-2.28h4.1v6.96Z" style="fill: #6f6f6f; stroke-width: 0px;"/>
    <path d="m95.1,76.29v4.37c0,.08,0,.19,0,.33,0,.13-.01.28-.02.43s-.02.29-.02.43c0,.14-.01.25-.02.34l3.8-5.9h1.29v6.96h-.98v-4.27c0-.14,0-.31,0-.52s.01-.42.02-.62.01-.37.02-.48l-3.78,5.89h-1.3v-6.96h1Z" style="fill: #6f6f6f; stroke-width: 0px;"/>
    <path d="m102.7,83.25h-1.23l2.01-2.93c-.29-.06-.56-.17-.81-.33s-.45-.37-.61-.64c-.15-.27-.23-.61-.23-1.01,0-.67.22-1.18.67-1.53.45-.35,1.04-.52,1.77-.52h3.08v6.96h-1.05v-2.79h-1.76l-1.82,2.79Zm.15-4.9c0,.42.15.72.44.92s.72.3,1.27.3h1.73v-2.4h-1.91c-.54,0-.93.11-1.17.33-.24.22-.36.5-.36.85Z" style="fill: #6f6f6f; stroke-width: 0px;"/>
  </g>
  <rect y="96" width="127.5" height="32" style="fill: #f2f2f2; stroke-width: 0px;"/>
  <g style="isolation: isolate;">
    <path d="m17.9,115.25h-1.08v-4.37h-4.88v4.37h-1.08v-9.28h1.08v3.95h4.88v-3.95h1.08v9.28Z" style="fill: #6f6f6f; stroke-width: 0px;"/>
    <path d="m26.29,111.76c0,.57-.07,1.08-.22,1.53-.15.45-.36.83-.64,1.14s-.62.54-1.01.71c-.4.16-.84.24-1.34.24-.47,0-.89-.08-1.28-.24-.39-.16-.72-.4-1-.71-.28-.31-.5-.69-.65-1.14-.15-.45-.23-.96-.23-1.53,0-.76.13-1.41.39-1.95s.63-.94,1.11-1.23c.48-.28,1.05-.42,1.72-.42s1.19.14,1.67.43c.48.28.85.69,1.11,1.23.26.54.4,1.18.4,1.94Zm-5.29,0c0,.56.07,1.04.22,1.45.15.41.38.73.69.95.31.22.71.34,1.19.34s.88-.11,1.19-.34c.31-.22.54-.54.69-.95.15-.41.22-.9.22-1.45s-.07-1.03-.22-1.44-.38-.72-.69-.94-.71-.33-1.2-.33c-.72,0-1.25.24-1.59.72-.34.48-.5,1.14-.5,1.99Z" style="fill: #6f6f6f; stroke-width: 0px;"/>
    <path d="m35.46,108.29v6.96h-.95v-4.53c0-.19,0-.38.02-.57.01-.19.02-.39.04-.58h-.04l-2.31,5.68h-.9l-2.25-5.68h-.04c.01.2.02.39.03.58,0,.19,0,.39,0,.61v4.49h-.96v-6.96h1.42l2.25,5.69,2.28-5.69h1.41Z" style="fill: #6f6f6f; stroke-width: 0px;"/>
    <path d="m40.32,108.17c.59,0,1.1.13,1.52.39s.75.63.97,1.1.34,1.02.34,1.65v.65h-4.81c.01.82.22,1.44.61,1.87.39.43.95.64,1.66.64.44,0,.83-.04,1.17-.12.34-.08.69-.2,1.05-.36v.93c-.35.16-.7.27-1.04.34-.35.07-.75.11-1.22.11-.67,0-1.25-.14-1.75-.41-.5-.27-.88-.67-1.16-1.2s-.41-1.18-.41-1.94.13-1.4.38-1.95c.25-.55.61-.97,1.07-1.27.46-.3,1-.44,1.62-.44Zm-.01.86c-.56,0-1.01.18-1.35.55-.33.37-.53.88-.6,1.54h3.68c0-.42-.07-.78-.19-1.09-.12-.32-.31-.56-.57-.74s-.58-.26-.98-.26Z" style="fill: #6f6f6f; stroke-width: 0px;"/>
    <path d="m48.21,108.17c.87,0,1.56.3,2.08.89.52.6.77,1.49.77,2.69,0,.79-.12,1.46-.36,1.99-.24.54-.57.94-1,1.22-.43.27-.94.41-1.52.41-.37,0-.69-.05-.97-.15-.28-.1-.52-.23-.72-.39-.2-.17-.36-.35-.5-.54h-.08c.01.17.03.36.05.6.02.23.03.44.03.61v2.86h-1.06v-10.07h.87l.14,1.03h.05c.14-.21.3-.41.5-.58s.43-.32.71-.42c.28-.1.61-.16,1-.16Zm-.18.89c-.48,0-.87.09-1.16.28-.29.19-.51.46-.64.83s-.21.83-.22,1.39v.2c0,.59.06,1.08.19,1.49.13.41.34.71.64.93.3.21.7.32,1.2.32.43,0,.79-.12,1.08-.35.29-.23.5-.56.64-.97.14-.42.21-.9.21-1.44,0-.82-.16-1.47-.48-1.96-.32-.48-.81-.73-1.47-.73Z" style="fill: #6f6f6f; stroke-width: 0px;"/>
    <path d="m62.1,108.29v6.96h-1.06v-6.05h-3.71v6.05h-1.06v-6.96h5.83Z" style="fill: #6f6f6f; stroke-width: 0px;"/>
    <path d="m66.94,108.18c.83,0,1.45.19,1.85.56s.6.97.6,1.78v4.73h-.77l-.2-1.03h-.05c-.19.25-.4.47-.61.64-.21.17-.46.3-.73.39-.28.09-.62.13-1.02.13-.42,0-.8-.07-1.13-.22-.33-.15-.59-.37-.77-.67-.19-.3-.28-.68-.28-1.14,0-.69.27-1.23.83-1.6.55-.37,1.39-.58,2.51-.61l1.2-.05v-.43c0-.6-.13-1.02-.39-1.26-.26-.24-.62-.36-1.09-.36-.36,0-.71.05-1.04.16-.33.11-.64.23-.94.38l-.32-.8c.31-.16.67-.3,1.08-.41.41-.11.83-.17,1.28-.17Zm1.41,3.64l-1.06.04c-.87.03-1.48.17-1.83.42s-.53.6-.53,1.06c0,.4.12.69.36.88s.56.29.96.29c.62,0,1.12-.17,1.52-.51s.59-.86.59-1.54v-.64Z" style="fill: #6f6f6f; stroke-width: 0px;"/>
    <path d="m74.35,115.38c-.63,0-1.18-.13-1.66-.39-.48-.26-.85-.65-1.12-1.18-.27-.53-.4-1.2-.4-2s.14-1.53.42-2.07c.28-.54.67-.93,1.17-1.19.5-.26,1.06-.39,1.69-.39.35,0,.68.04,1.01.1.32.07.59.16.8.26l-.32.88c-.21-.08-.46-.16-.73-.23-.28-.07-.54-.1-.78-.1-.48,0-.88.1-1.2.31-.32.21-.56.51-.72.91-.16.4-.24.9-.24,1.49s.08,1.04.23,1.44c.15.4.39.7.69.91.31.21.69.31,1.15.31.37,0,.7-.04,1-.12s.56-.17.81-.28v.94c-.23.12-.49.21-.78.27-.29.06-.62.1-1.02.1Z" style="fill: #6f6f6f; stroke-width: 0px;"/>
    <path d="m83.61,108.29v6.96h-1.06v-6.05h-3.71v6.05h-1.06v-6.96h5.83Z" style="fill: #6f6f6f; stroke-width: 0px;"/>
    <path d="m91.85,111.76c0,.57-.07,1.08-.22,1.53-.15.45-.36.83-.64,1.14s-.62.54-1.01.71c-.4.16-.84.24-1.34.24-.47,0-.89-.08-1.28-.24-.39-.16-.72-.4-1-.71-.28-.31-.5-.69-.65-1.14-.15-.45-.23-.96-.23-1.53,0-.76.13-1.41.39-1.95s.63-.94,1.11-1.23c.48-.28,1.05-.42,1.72-.42s1.19.14,1.67.43c.48.28.85.69,1.11,1.23.26.54.4,1.18.4,1.94Zm-5.29,0c0,.56.07,1.04.22,1.45.15.41.38.73.69.95.31.22.71.34,1.19.34s.88-.11,1.19-.34c.31-.22.54-.54.69-.95.15-.41.22-.9.22-1.45s-.07-1.03-.22-1.44-.38-.72-.69-.94-.71-.33-1.2-.33c-.72,0-1.25.24-1.59.72-.34.48-.5,1.14-.5,1.99Z" style="fill: #6f6f6f; stroke-width: 0px;"/>
    <path d="m96.94,108.17c.87,0,1.56.3,2.08.89.52.6.77,1.49.77,2.69,0,.79-.12,1.46-.36,1.99-.24.54-.57.94-1,1.22-.43.27-.94.41-1.52.41-.37,0-.69-.05-.97-.15-.28-.1-.52-.23-.72-.39-.2-.17-.36-.35-.5-.54h-.08c.01.17.03.36.05.6.02.23.03.44.03.61v2.86h-1.06v-10.07h.87l.14,1.03h.05c.14-.21.3-.41.5-.58s.43-.32.71-.42c.28-.1.61-.16,1-.16Zm-.18.89c-.48,0-.87.09-1.16.28-.29.19-.51.46-.64.83s-.21.83-.22,1.39v.2c0,.59.06,1.08.19,1.49.13.41.34.71.64.93.3.21.7.32,1.2.32.43,0,.79-.12,1.08-.35.29-.23.5-.56.64-.97.14-.42.21-.9.21-1.44,0-.82-.16-1.47-.48-1.96-.32-.48-.81-.73-1.47-.73Z" style="fill: #6f6f6f; stroke-width: 0px;"/>
    <path d="m106.36,109.19h-2.29v6.06h-1.04v-6.06h-2.26v-.89h5.59v.89Z" style="fill: #6f6f6f; stroke-width: 0px;"/>
    <path d="m110.34,108.18c.83,0,1.45.19,1.85.56s.6.97.6,1.78v4.73h-.77l-.2-1.03h-.05c-.19.25-.4.47-.61.64-.21.17-.46.3-.73.39-.28.09-.62.13-1.02.13-.42,0-.8-.07-1.13-.22-.33-.15-.59-.37-.77-.67-.19-.3-.28-.68-.28-1.14,0-.69.27-1.23.83-1.6.55-.37,1.39-.58,2.51-.61l1.2-.05v-.43c0-.6-.13-1.02-.39-1.26-.26-.24-.62-.36-1.09-.36-.36,0-.71.05-1.04.16-.33.11-.64.23-.94.38l-.32-.8c.31-.16.67-.3,1.08-.41.41-.11.83-.17,1.28-.17Zm1.41,3.64l-1.06.04c-.87.03-1.48.17-1.83.42s-.53.6-.53,1.06c0,.4.12.69.36.88s.56.29.96.29c.62,0,1.12-.17,1.52-.51s.59-.86.59-1.54v-.64Z" style="fill: #6f6f6f; stroke-width: 0px;"/>
  </g>
  <rect x="181.8" width="164.6" height="32" style="fill: #79ad51; stroke-width: 0px;"/>
  <g style="isolation: isolate;">
    <path d="m192.94,19.25v-9.28h7.34v9.28h-1.96v-7.64h-3.42v7.64h-1.97Z" style="fill: #fff; stroke-width: 0px;"/>
    <path d="m205.38,12.01c.95,0,1.68.21,2.19.62.51.42.76,1.05.76,1.89v4.73h-1.35l-.37-.96h-.05c-.2.25-.41.46-.62.62-.21.16-.46.28-.73.36-.27.08-.61.11-1,.11-.42,0-.79-.08-1.13-.24-.33-.16-.59-.41-.78-.74s-.29-.75-.29-1.27c0-.75.26-1.31.79-1.67.53-.36,1.32-.56,2.38-.59l1.23-.04v-.31c0-.37-.1-.65-.29-.82-.19-.17-.46-.26-.81-.26s-.68.05-1.01.15-.66.22-.99.37l-.64-1.31c.38-.2.8-.36,1.27-.47s.95-.17,1.45-.17Zm1.03,3.95l-.75.03c-.63.02-1.06.13-1.3.34-.24.21-.36.48-.36.82,0,.3.09.51.26.63.17.12.4.19.68.19.41,0,.76-.12,1.05-.37.29-.25.43-.59.43-1.05v-.58Z" style="fill: #fff; stroke-width: 0px;"/>
    <path d="m213.21,19.38c-.7,0-1.3-.13-1.8-.38s-.87-.65-1.13-1.19c-.26-.54-.39-1.22-.39-2.06s.15-1.58.44-2.12c.29-.55.7-.95,1.22-1.21s1.13-.39,1.82-.39c.49,0,.92.05,1.27.14.36.09.67.21.94.34l-.57,1.5c-.3-.12-.59-.22-.85-.3-.26-.08-.52-.12-.79-.12-.34,0-.62.08-.84.24-.22.16-.39.4-.5.71-.11.32-.17.72-.17,1.19s.06.86.18,1.17c.12.31.29.54.51.69.22.15.5.22.82.22.4,0,.76-.05,1.07-.16.31-.11.62-.26.91-.45v1.66c-.3.19-.61.32-.93.4-.32.08-.73.12-1.23.12Z" style="fill: #fff; stroke-width: 0px;"/>
    <path d="m223.46,12.15v7.1h-1.94v-5.64h-2.57v5.64h-1.94v-7.1h6.45Z" style="fill: #fff; stroke-width: 0px;"/>
    <path d="m231.93,15.69c0,.59-.08,1.12-.24,1.57-.16.46-.39.84-.69,1.16-.3.32-.67.55-1.09.71-.43.16-.91.24-1.44.24-.5,0-.96-.08-1.37-.24s-.78-.4-1.08-.71c-.31-.32-.54-.7-.71-1.16-.17-.46-.25-.98-.25-1.57,0-.79.14-1.45.42-2s.68-.96,1.19-1.24c.52-.28,1.13-.43,1.85-.43.67,0,1.25.14,1.77.43.51.28.92.7,1.21,1.24s.44,1.21.44,2Zm-4.91,0c0,.46.05.86.15,1.17s.26.56.48.72c.22.16.5.24.84.24s.62-.08.83-.24c.21-.16.37-.4.47-.72s.15-.71.15-1.17-.05-.86-.15-1.17c-.1-.31-.26-.54-.47-.7s-.5-.23-.84-.23c-.51,0-.88.17-1.11.53-.23.35-.35.88-.35,1.58Z" style="fill: #fff; stroke-width: 0px;"/>
    <path d="m237.48,12.02c.8,0,1.45.31,1.94.93.49.62.74,1.53.74,2.74,0,.8-.12,1.48-.35,2.03-.23.55-.55.96-.96,1.24-.41.28-.88.42-1.42.42-.34,0-.64-.04-.88-.13-.25-.09-.46-.2-.63-.34-.17-.14-.32-.28-.45-.44h-.1c.03.17.06.34.08.52.02.18.03.35.03.52v2.86h-1.94v-10.22h1.57l.27.92h.09c.13-.19.28-.37.46-.53.18-.16.4-.29.66-.38.26-.1.55-.14.89-.14Zm-.62,1.55c-.34,0-.61.07-.81.21-.2.14-.34.35-.43.63s-.14.63-.15,1.06v.21c0,.46.04.84.13,1.16.09.32.23.56.44.72s.49.25.85.25c.3,0,.54-.08.73-.25s.33-.41.43-.73c.1-.32.14-.71.14-1.17,0-.69-.11-1.22-.32-1.57s-.55-.53-1-.53Z" style="fill: #fff; stroke-width: 0px;"/>
    <path d="m247.63,13.61h-2.32v5.64h-1.94v-5.64h-2.33v-1.45h6.59v1.45Z" style="fill: #fff; stroke-width: 0px;"/>
    <path d="m250.89,12.15v2.73h2.7v-2.73h1.94v7.1h-1.94v-2.93h-2.7v2.93h-1.94v-7.1h1.94Z" style="fill: #fff; stroke-width: 0px;"/>
    <path d="m257.56,19.25v-7.1h1.94v2.74h.93c.72,0,1.32.08,1.79.23.47.15.82.38,1.05.7.23.31.34.7.34,1.17s-.11.85-.32,1.19c-.21.34-.55.6-1,.79s-1.06.28-1.8.28h-2.94Zm1.94-1.34h.89c.38,0,.69-.07.93-.21s.36-.37.36-.69c0-.28-.11-.47-.33-.6-.22-.12-.55-.18-.98-.18h-.87v1.68Zm5.15,1.34v-7.1h1.94v7.1h-1.94Z" style="fill: #fff; stroke-width: 0px;"/>
    <path d="m271.54,12.02c.66,0,1.22.13,1.7.38.47.25.84.62,1.1,1.09.26.48.39,1.06.39,1.75v.94h-4.58c.02.55.19.97.49,1.29.31.31.73.47,1.28.47.45,0,.87-.05,1.24-.14.38-.09.76-.23,1.16-.42v1.5c-.35.17-.72.3-1.1.38-.38.08-.85.12-1.39.12-.71,0-1.34-.13-1.89-.39s-.98-.66-1.29-1.2c-.31-.54-.47-1.21-.47-2.03s.14-1.52.42-2.07c.28-.55.67-.97,1.18-1.24.5-.28,1.09-.42,1.76-.42Zm.01,1.38c-.38,0-.69.12-.94.36-.25.24-.39.62-.43,1.14h2.72c0-.29-.06-.54-.16-.77-.1-.22-.25-.4-.44-.53-.2-.13-.45-.2-.75-.2Z" style="fill: #fff; stroke-width: 0px;"/>
    <path d="m286.05,12.15v5.68h1.04v3.96h-1.74v-2.54h-4.77v2.54h-1.74v-3.96h.6c.31-.48.58-1.02.79-1.64.21-.61.39-1.26.52-1.95.13-.69.23-1.38.29-2.09h5.01Zm-1.94,1.45h-1.45c-.07.52-.15,1.03-.26,1.52-.1.49-.23.96-.38,1.41-.15.45-.34.88-.56,1.3h2.65v-4.23Z" style="fill: #fff; stroke-width: 0px;"/>
    <path d="m291.21,12.01c.95,0,1.68.21,2.19.62.51.42.76,1.05.76,1.89v4.73h-1.35l-.38-.96h-.05c-.2.25-.41.46-.62.62-.21.16-.46.28-.73.36-.28.08-.61.11-1,.11-.42,0-.79-.08-1.13-.24s-.59-.41-.78-.74-.29-.75-.29-1.27c0-.75.26-1.31.79-1.67.53-.36,1.32-.56,2.38-.59l1.23-.04v-.31c0-.37-.1-.65-.29-.82-.2-.17-.47-.26-.81-.26s-.68.05-1.01.15-.66.22-.99.37l-.64-1.31c.38-.2.8-.36,1.27-.47.47-.11.95-.17,1.45-.17Zm1.03,3.95l-.75.03c-.63.02-1.06.13-1.3.34-.24.21-.37.48-.37.82,0,.3.09.51.26.63.17.12.4.19.68.19.42,0,.77-.12,1.05-.37.29-.25.43-.59.43-1.05v-.58Z" style="fill: #fff; stroke-width: 0px;"/>
    <path d="m298.09,12.15v2.73h2.7v-2.73h1.94v7.1h-1.94v-2.93h-2.7v2.93h-1.94v-7.1h1.94Z" style="fill: #fff; stroke-width: 0px;"/>
    <path d="m306.7,12.15v2.73h2.7v-2.73h1.94v7.1h-1.94v-2.93h-2.7v2.93h-1.94v-7.1h1.94Z" style="fill: #fff; stroke-width: 0px;"/>
    <path d="m313.37,19.25v-7.1h1.94v2.74h.93c.72,0,1.32.08,1.79.23.47.15.82.38,1.05.7.23.31.34.7.34,1.17s-.11.85-.32,1.19c-.21.34-.55.6-1,.79s-1.06.28-1.8.28h-2.94Zm1.94-1.34h.89c.38,0,.69-.07.93-.21s.36-.37.36-.69c0-.28-.11-.47-.33-.6-.22-.12-.55-.18-.98-.18h-.87v1.68Zm5.15,1.34v-7.1h1.94v7.1h-1.94Z" style="fill: #fff; stroke-width: 0px;"/>
    <path d="m327.34,12.02c.66,0,1.22.13,1.7.38.47.25.84.62,1.1,1.09.26.48.39,1.06.39,1.75v.94h-4.58c.02.55.19.97.49,1.29.31.31.73.47,1.28.47.45,0,.87-.05,1.24-.14.38-.09.76-.23,1.16-.42v1.5c-.35.17-.72.3-1.1.38-.38.08-.85.12-1.39.12-.71,0-1.34-.13-1.89-.39s-.98-.66-1.29-1.2c-.31-.54-.47-1.21-.47-2.03s.14-1.52.42-2.07c.28-.55.67-.97,1.18-1.24.5-.28,1.09-.42,1.76-.42Zm.01,1.38c-.38,0-.69.12-.94.36-.25.24-.39.62-.43,1.14h2.72c0-.29-.06-.54-.16-.77-.1-.22-.25-.4-.44-.53-.2-.13-.45-.2-.75-.2Z" style="fill: #fff; stroke-width: 0px;"/>
  </g>
  <rect x="181.8" y="32" width="164.6" height="32" style="fill: #f2f2f2; stroke-width: 0px;"/>
  <g style="isolation: isolate;">
    <path d="m200.07,51.25h-1.08v-4.37h-4.88v4.37h-1.08v-9.28h1.08v3.95h4.88v-3.95h1.08v9.28Z" style="fill: #6f6f6f; stroke-width: 0px;"/>
    <path d="m208.47,47.76c0,.57-.07,1.08-.22,1.53-.15.45-.36.83-.64,1.14s-.62.54-1.01.71c-.4.16-.84.24-1.34.24-.47,0-.89-.08-1.28-.24-.39-.16-.72-.4-1-.71s-.5-.69-.65-1.14c-.15-.45-.23-.96-.23-1.53,0-.76.13-1.41.39-1.95.26-.54.63-.94,1.11-1.23s1.05-.42,1.72-.42,1.19.14,1.67.43c.48.28.85.69,1.11,1.23s.4,1.18.4,1.94Zm-5.29,0c0,.56.07,1.04.22,1.45.15.41.38.73.69.95.31.22.71.34,1.19.34s.88-.11,1.19-.34c.31-.22.54-.54.69-.95.15-.41.22-.9.22-1.45s-.07-1.03-.22-1.44c-.15-.4-.38-.72-.69-.94-.31-.22-.71-.33-1.2-.33-.72,0-1.25.24-1.59.72-.34.48-.5,1.14-.5,1.99Z" style="fill: #6f6f6f; stroke-width: 0px;"/>
    <path d="m217.63,44.29v6.96h-.95v-4.53c0-.19,0-.38.02-.57.01-.19.02-.39.04-.58h-.04l-2.31,5.68h-.9l-2.25-5.68h-.04c.01.2.02.39.03.58,0,.19,0,.39,0,.61v4.49h-.96v-6.96h1.42l2.25,5.69,2.28-5.69h1.41Z" style="fill: #6f6f6f; stroke-width: 0px;"/>
    <path d="m222.5,44.17c.59,0,1.1.13,1.52.39.42.26.75.63.97,1.1.22.47.34,1.02.34,1.65v.65h-4.81c.01.82.22,1.44.61,1.87.39.43.95.64,1.66.64.44,0,.83-.04,1.17-.12.34-.08.69-.2,1.05-.36v.93c-.35.16-.7.27-1.04.34-.34.07-.75.11-1.22.11-.67,0-1.25-.14-1.75-.41-.5-.27-.88-.67-1.16-1.2-.28-.53-.41-1.18-.41-1.94s.13-1.4.38-1.95.61-.97,1.07-1.27,1-.44,1.62-.44Zm-.01.86c-.56,0-1.01.18-1.35.55-.33.37-.53.88-.6,1.54h3.68c0-.42-.07-.78-.19-1.09-.12-.32-.31-.56-.57-.74s-.58-.26-.98-.26Z" style="fill: #6f6f6f; stroke-width: 0px;"/>
    <path d="m230.39,44.17c.87,0,1.56.3,2.08.89.52.6.77,1.49.77,2.69,0,.79-.12,1.46-.36,1.99-.24.54-.57.94-1,1.22-.43.27-.94.41-1.52.41-.37,0-.69-.05-.97-.15-.28-.1-.52-.23-.72-.39-.2-.17-.36-.35-.5-.54h-.08c.01.17.03.36.05.6.02.23.03.44.03.61v2.86h-1.06v-10.07h.87l.14,1.03h.05c.14-.21.3-.41.5-.58.2-.18.43-.32.71-.42.28-.1.62-.16,1-.16Zm-.18.89c-.48,0-.87.09-1.17.28s-.51.46-.64.83c-.13.37-.21.83-.22,1.39v.2c0,.59.06,1.08.19,1.49.13.41.34.71.64.93.3.21.7.32,1.2.32.43,0,.79-.12,1.08-.35.29-.23.5-.56.64-.97.14-.42.21-.9.21-1.44,0-.82-.16-1.47-.48-1.96-.32-.48-.81-.73-1.47-.73Z" style="fill: #6f6f6f; stroke-width: 0px;"/>
    <path d="m244.28,44.29v6.96h-1.06v-6.05h-3.71v6.05h-1.06v-6.96h5.83Z" style="fill: #6f6f6f; stroke-width: 0px;"/>
    <path d="m249.12,44.18c.83,0,1.45.19,1.85.56.4.37.6.97.6,1.78v4.73h-.77l-.2-1.03h-.05c-.2.25-.4.47-.61.64-.21.17-.46.3-.73.39s-.62.13-1.02.13c-.42,0-.8-.07-1.13-.22-.33-.15-.59-.37-.77-.67-.19-.3-.28-.68-.28-1.14,0-.69.27-1.23.83-1.6.55-.37,1.39-.58,2.51-.61l1.2-.05v-.43c0-.6-.13-1.02-.39-1.26-.26-.24-.62-.36-1.09-.36-.36,0-.71.05-1.04.16-.33.11-.64.23-.94.38l-.32-.8c.31-.16.67-.3,1.08-.41.41-.11.83-.17,1.28-.17Zm1.41,3.64l-1.06.04c-.87.03-1.48.17-1.83.42s-.53.6-.53,1.06c0,.4.12.69.36.88s.56.29.96.29c.62,0,1.12-.17,1.52-.51s.59-.86.59-1.54v-.64Z" style="fill: #6f6f6f; stroke-width: 0px;"/>
    <path d="m256.52,51.38c-.63,0-1.18-.13-1.66-.39-.48-.26-.85-.65-1.12-1.18-.27-.53-.4-1.2-.4-2s.14-1.53.42-2.07.67-.93,1.17-1.19c.5-.26,1.06-.39,1.69-.39.35,0,.68.04,1.01.1.32.07.59.16.8.26l-.32.88c-.21-.08-.46-.16-.73-.23-.28-.07-.54-.1-.78-.1-.48,0-.88.1-1.2.31s-.56.51-.72.91c-.16.4-.24.9-.24,1.49s.08,1.04.23,1.44c.15.4.38.7.69.91.31.21.69.31,1.15.31.37,0,.7-.04,1-.12.3-.08.56-.17.81-.28v.94c-.23.12-.49.21-.78.27-.29.06-.62.1-1.02.1Z" style="fill: #6f6f6f; stroke-width: 0px;"/>
    <path d="m265.79,44.29v6.96h-1.06v-6.05h-3.71v6.05h-1.06v-6.96h5.83Z" style="fill: #6f6f6f; stroke-width: 0px;"/>
    <path d="m274.02,47.76c0,.57-.07,1.08-.22,1.53-.15.45-.36.83-.64,1.14s-.62.54-1.01.71c-.4.16-.84.24-1.34.24-.47,0-.89-.08-1.28-.24-.39-.16-.72-.4-1-.71s-.5-.69-.65-1.14c-.15-.45-.23-.96-.23-1.53,0-.76.13-1.41.39-1.95.26-.54.63-.94,1.11-1.23s1.05-.42,1.72-.42,1.19.14,1.67.43c.48.28.85.69,1.11,1.23s.4,1.18.4,1.94Zm-5.29,0c0,.56.07,1.04.22,1.45.15.41.38.73.69.95.31.22.71.34,1.19.34s.88-.11,1.19-.34c.31-.22.54-.54.69-.95.15-.41.22-.9.22-1.45s-.07-1.03-.22-1.44c-.15-.4-.38-.72-.69-.94-.31-.22-.71-.33-1.2-.33-.72,0-1.25.24-1.59.72-.34.48-.5,1.14-.5,1.99Z" style="fill: #6f6f6f; stroke-width: 0px;"/>
    <path d="m279.12,44.17c.87,0,1.56.3,2.08.89.52.6.77,1.49.77,2.69,0,.79-.12,1.46-.36,1.99-.24.54-.57.94-1,1.22-.43.27-.94.41-1.52.41-.37,0-.69-.05-.97-.15-.28-.1-.52-.23-.72-.39-.2-.17-.36-.35-.5-.54h-.08c.01.17.03.36.05.6.02.23.03.44.03.61v2.86h-1.06v-10.07h.87l.14,1.03h.05c.14-.21.3-.41.5-.58.2-.18.43-.32.71-.42.28-.1.62-.16,1-.16Zm-.18.89c-.48,0-.87.09-1.17.28s-.51.46-.64.83c-.13.37-.21.83-.22,1.39v.2c0,.59.06,1.08.19,1.49.13.41.34.71.64.93.3.21.7.32,1.2.32.43,0,.79-.12,1.08-.35.29-.23.5-.56.64-.97.14-.42.21-.9.21-1.44,0-.82-.16-1.47-.48-1.96-.32-.48-.81-.73-1.47-.73Z" style="fill: #6f6f6f; stroke-width: 0px;"/>
    <path d="m288.54,45.19h-2.29v6.06h-1.04v-6.06h-2.26v-.89h5.59v.89Z" style="fill: #6f6f6f; stroke-width: 0px;"/>
    <path d="m292.52,44.18c.83,0,1.45.19,1.85.56.4.37.6.97.6,1.78v4.73h-.77l-.2-1.03h-.05c-.2.25-.4.47-.61.64-.21.17-.46.3-.73.39s-.62.13-1.02.13c-.42,0-.8-.07-1.13-.22-.33-.15-.59-.37-.77-.67-.19-.3-.28-.68-.28-1.14,0-.69.27-1.23.83-1.6.55-.37,1.39-.58,2.51-.61l1.2-.05v-.43c0-.6-.13-1.02-.39-1.26-.26-.24-.62-.36-1.09-.36-.36,0-.71.05-1.04.16-.33.11-.64.23-.94.38l-.32-.8c.31-.16.67-.3,1.08-.41.41-.11.83-.17,1.28-.17Zm1.41,3.64l-1.06.04c-.87.03-1.48.17-1.83.42s-.53.6-.53,1.06c0,.4.12.69.36.88s.56.29.96.29c.62,0,1.12-.17,1.52-.51s.59-.86.59-1.54v-.64Z" style="fill: #6f6f6f; stroke-width: 0px;"/>
  </g>
  <rect x="181.8" y="64" width="164.6" height="32" style="fill: #f2f2f2; stroke-width: 0px;"/>
  <g style="isolation: isolate;">
    <path d="m199.22,73.97v8.32h1.14v3.39h-1.03v-2.42h-6.45v2.42h-1.04v-3.39h.71c.32-.54.62-1.15.89-1.83.28-.67.53-1.38.74-2.12s.4-1.48.53-2.22.23-1.46.26-2.15h4.23Zm-1.07.97h-2.21c-.04.52-.12,1.11-.25,1.75-.13.65-.3,1.31-.5,1.98s-.43,1.33-.69,1.95c-.25.62-.52,1.17-.8,1.66h4.45v-7.34Z" style="fill: #6f6f6f; stroke-width: 0px;"/>
    <path d="m204.38,76.18c.83,0,1.45.19,1.85.56.4.37.6.97.6,1.78v4.73h-.77l-.2-1.03h-.05c-.2.25-.4.47-.61.64-.21.17-.46.3-.73.39s-.62.13-1.02.13c-.42,0-.8-.07-1.13-.22-.33-.15-.59-.37-.77-.67-.19-.3-.28-.68-.28-1.14,0-.69.27-1.23.83-1.6.55-.37,1.39-.58,2.51-.61l1.2-.05v-.43c0-.6-.13-1.02-.39-1.26-.26-.24-.62-.36-1.09-.36-.36,0-.71.05-1.04.16-.33.11-.64.23-.94.38l-.32-.8c.31-.16.67-.3,1.08-.41.41-.11.83-.17,1.28-.17Zm1.41,3.64l-1.06.04c-.87.03-1.48.17-1.83.42s-.53.6-.53,1.06c0,.4.12.69.36.88s.56.29.96.29c.62,0,1.12-.17,1.52-.51s.59-.86.59-1.54v-.64Z" style="fill: #6f6f6f; stroke-width: 0px;"/>
    <path d="m213.74,77.19h-2.29v6.06h-1.04v-6.06h-2.26v-.89h5.59v.89Z" style="fill: #6f6f6f; stroke-width: 0px;"/>
    <path d="m217.72,76.18c.83,0,1.45.19,1.85.56.4.37.6.97.6,1.78v4.73h-.77l-.2-1.03h-.05c-.2.25-.4.47-.61.64-.21.17-.46.3-.73.39s-.62.13-1.02.13c-.42,0-.8-.07-1.13-.22-.33-.15-.59-.37-.77-.67-.19-.3-.28-.68-.28-1.14,0-.69.27-1.23.83-1.6.55-.37,1.39-.58,2.51-.61l1.2-.05v-.43c0-.6-.13-1.02-.39-1.26-.26-.24-.62-.36-1.09-.36-.36,0-.71.05-1.04.16-.33.11-.64.23-.94.38l-.32-.8c.31-.16.67-.3,1.08-.41.41-.11.83-.17,1.28-.17Zm1.41,3.64l-1.06.04c-.87.03-1.48.17-1.83.42s-.53.6-.53,1.06c0,.4.12.69.36.88s.56.29.96.29c.62,0,1.12-.17,1.52-.51s.59-.86.59-1.54v-.64Z" style="fill: #6f6f6f; stroke-width: 0px;"/>
    <path d="m231.25,78.04c0,.44-.13.78-.38,1.02s-.58.41-.98.49v.05c.44.06.81.21,1.13.47s.47.64.47,1.15c0,.4-.09.75-.29,1.05s-.49.54-.9.72c-.41.17-.93.26-1.59.26h-3v-6.96h2.97c.5,0,.94.06,1.32.17.38.11.68.29.9.55.22.25.33.6.33,1.03Zm-1.07.12c0-.33-.12-.58-.36-.74s-.64-.24-1.19-.24h-1.85v2h1.66c.57,0,1-.08,1.29-.25.29-.17.44-.42.44-.77Zm.21,3.06c0-.41-.16-.71-.47-.89-.31-.18-.76-.27-1.36-.27h-1.78v2.34h1.81c.58,0,1.03-.09,1.34-.27.31-.18.46-.48.46-.9Z" style="fill: #6f6f6f; stroke-width: 0px;"/>
    <path d="m233.18,83.25v-6.96h1.06v2.87h1.9c.59,0,1.08.07,1.46.22.38.15.67.37.85.66.19.29.28.65.28,1.08s-.09.81-.28,1.12c-.18.32-.47.56-.86.74-.39.17-.9.26-1.53.26h-2.89Zm1.06-.86h1.73c.53,0,.94-.09,1.26-.28.31-.19.47-.5.47-.93s-.15-.72-.44-.89-.71-.25-1.26-.25h-1.76v2.35Zm5.65.86v-6.96h1.05v6.96h-1.05Z" style="fill: #6f6f6f; stroke-width: 0px;"/>
    <path d="m248.27,76.29v6.06h1v3.3h-1.02v-2.41h-4.93v2.41h-1.01v-3.3h.55c.4-.55.73-1.15.99-1.81.26-.66.46-1.34.6-2.07.13-.72.21-1.45.22-2.19h3.61Zm-1.02.84h-1.65c-.04.62-.13,1.25-.27,1.88-.14.64-.33,1.25-.56,1.83-.23.58-.5,1.08-.81,1.51h3.29v-5.22Z" style="fill: #6f6f6f; stroke-width: 0px;"/>
    <path d="m253.24,76.18c.83,0,1.45.19,1.85.56.4.37.6.97.6,1.78v4.73h-.77l-.2-1.03h-.05c-.2.25-.4.47-.61.64-.21.17-.46.3-.73.39s-.62.13-1.02.13c-.42,0-.8-.07-1.13-.22-.33-.15-.59-.37-.77-.67-.19-.3-.28-.68-.28-1.14,0-.69.27-1.23.83-1.6.55-.37,1.39-.58,2.51-.61l1.2-.05v-.43c0-.6-.13-1.02-.39-1.26-.26-.24-.62-.36-1.09-.36-.36,0-.71.05-1.04.16-.33.11-.64.23-.94.38l-.32-.8c.31-.16.67-.3,1.08-.41.41-.11.83-.17,1.28-.17Zm1.41,3.64l-1.06.04c-.87.03-1.48.17-1.83.42s-.53.6-.53,1.06c0,.4.12.69.36.88s.56.29.96.29c.62,0,1.12-.17,1.52-.51s.59-.86.59-1.54v-.64Z" style="fill: #6f6f6f; stroke-width: 0px;"/>
    <path d="m258.78,76.29v2.5c0,.44.12.76.36.96s.59.31,1.04.31.84-.07,1.2-.2c.36-.14.72-.32,1.09-.55v-3.02h1.05v6.96h-1.05v-3.12c-.39.25-.77.45-1.15.59-.38.14-.83.22-1.35.22-.72,0-1.27-.19-1.66-.56s-.59-.88-.59-1.51v-2.58h1.05Z" style="fill: #6f6f6f; stroke-width: 0px;"/>
    <path d="m266.76,76.29v4.37c0,.08,0,.19,0,.33,0,.13-.01.28-.02.43,0,.15-.02.29-.02.43,0,.14-.01.25-.02.34l3.8-5.9h1.29v6.96h-.98v-4.27c0-.14,0-.31,0-.52,0-.21.01-.42.02-.62,0-.21.01-.37.02-.48l-3.78,5.89h-1.3v-6.96h1Z" style="fill: #6f6f6f; stroke-width: 0px;"/>
  </g>
  <rect x="181.8" y="96" width="164.6" height="32" style="fill: #f2f2f2; stroke-width: 0px;"/>
  <g style="isolation: isolate;">
    <path d="m198.25,105.97v.96h-4.13v8.32h-1.08v-9.28h5.21Z" style="fill: #6f6f6f; stroke-width: 0px;"/>
    <path d="m202.91,108.17c.87,0,1.56.3,2.08.89.52.6.77,1.49.77,2.69,0,.79-.12,1.46-.36,1.99-.24.54-.57.94-1,1.22-.43.27-.94.41-1.52.41-.37,0-.69-.05-.97-.15-.28-.1-.52-.23-.72-.39-.2-.17-.36-.35-.5-.54h-.08c.01.17.03.36.05.6.02.23.03.44.03.61v2.86h-1.06v-10.07h.87l.14,1.03h.05c.13-.21.3-.41.5-.58.19-.18.43-.32.71-.42s.61-.16,1-.16Zm-.18.89c-.48,0-.87.09-1.16.28-.29.19-.51.46-.64.83-.14.37-.21.83-.22,1.39v.2c0,.59.06,1.08.19,1.49s.34.71.64.93c.3.21.7.32,1.2.32.43,0,.79-.12,1.08-.35.29-.23.5-.56.64-.97s.21-.9.21-1.44c0-.82-.16-1.47-.48-1.96s-.81-.73-1.47-.73Z" style="fill: #6f6f6f; stroke-width: 0px;"/>
    <path d="m210.2,108.18c.83,0,1.45.19,1.85.56.4.37.6.97.6,1.78v4.73h-.77l-.2-1.03h-.05c-.19.25-.4.47-.61.64-.21.17-.46.3-.73.39-.28.09-.62.13-1.02.13-.42,0-.8-.07-1.13-.22-.33-.15-.59-.37-.77-.67-.19-.3-.28-.68-.28-1.14,0-.69.28-1.23.83-1.6.55-.37,1.39-.58,2.51-.61l1.2-.05v-.43c0-.6-.13-1.02-.39-1.26-.26-.24-.62-.36-1.09-.36-.36,0-.71.05-1.04.16-.33.11-.64.23-.94.38l-.32-.8c.31-.16.67-.3,1.08-.41.41-.11.83-.17,1.28-.17Zm1.41,3.64l-1.06.04c-.87.03-1.48.17-1.83.42s-.53.6-.53,1.06c0,.4.12.69.36.88s.56.29.96.29c.62,0,1.12-.17,1.52-.51s.59-.86.59-1.54v-.64Z" style="fill: #6f6f6f; stroke-width: 0px;"/>
    <path d="m222.97,108.29l-2.89,3.38,3.14,3.57h-1.21l-3.05-3.53v3.53h-.98v-3.53l-3.04,3.53h-1.21l3.14-3.57-2.9-3.38h1.16l2.84,3.38v-3.38h.98v3.38l2.86-3.38h1.15Z" style="fill: #6f6f6f; stroke-width: 0px;"/>
    <path d="m229.47,108.29v6.06h1v3.3h-1.02v-2.41h-4.93v2.41h-1.01v-3.3h.55c.4-.55.73-1.15.99-1.81.26-.66.46-1.34.6-2.07.14-.72.21-1.45.22-2.19h3.61Zm-1.02.84h-1.65c-.04.62-.13,1.25-.27,1.88-.14.64-.33,1.25-.56,1.83-.23.58-.5,1.08-.81,1.51h3.29v-5.22Z" style="fill: #6f6f6f; stroke-width: 0px;"/>
    <path d="m234.45,108.18c.83,0,1.45.19,1.85.56.4.37.6.97.6,1.78v4.73h-.77l-.2-1.03h-.05c-.19.25-.4.47-.61.64-.21.17-.46.3-.73.39-.28.09-.62.13-1.02.13-.42,0-.8-.07-1.13-.22-.33-.15-.59-.37-.77-.67-.19-.3-.28-.68-.28-1.14,0-.69.28-1.23.83-1.6.55-.37,1.39-.58,2.51-.61l1.2-.05v-.43c0-.6-.13-1.02-.39-1.26-.26-.24-.62-.36-1.09-.36-.36,0-.71.05-1.04.16-.33.11-.64.23-.94.38l-.32-.8c.31-.16.67-.3,1.08-.41.41-.11.83-.17,1.28-.17Zm1.41,3.64l-1.06.04c-.87.03-1.48.17-1.83.42s-.53.6-.53,1.06c0,.4.12.69.36.88s.56.29.96.29c.62,0,1.12-.17,1.52-.51s.59-.86.59-1.54v-.64Z" style="fill: #6f6f6f; stroke-width: 0px;"/>
    <path d="m240.13,108.29v2.92h3.88v-2.92h1.05v6.96h-1.05v-3.14h-3.88v3.14h-1.06v-6.96h1.06Z" style="fill: #6f6f6f; stroke-width: 0px;"/>
    <path d="m250.08,115.38c-.63,0-1.18-.13-1.66-.39-.48-.26-.85-.65-1.12-1.18-.27-.53-.4-1.2-.4-2s.14-1.53.42-2.07c.28-.54.67-.93,1.17-1.19.5-.26,1.06-.39,1.69-.39.35,0,.68.04,1.01.1.32.07.59.16.8.26l-.32.88c-.21-.08-.46-.16-.73-.23-.28-.07-.54-.1-.78-.1-.48,0-.88.1-1.2.31-.32.21-.56.51-.72.91-.16.4-.24.9-.24,1.49s.08,1.04.23,1.44c.16.4.39.7.69.91.31.21.69.31,1.15.31.37,0,.7-.04,1-.12.3-.08.57-.17.81-.28v.94c-.23.12-.49.21-.78.27-.29.06-.62.1-1.02.1Z" style="fill: #6f6f6f; stroke-width: 0px;"/>
    <path d="m258.26,109.19h-2.29v6.06h-1.04v-6.06h-2.26v-.89h5.59v.89Z" style="fill: #6f6f6f; stroke-width: 0px;"/>
    <path d="m265.17,110.04c0,.44-.13.78-.38,1.02s-.58.41-.98.49v.05c.44.06.81.21,1.13.47s.47.64.47,1.15c0,.4-.09.75-.29,1.05s-.49.54-.9.72c-.41.17-.93.26-1.59.26h-3v-6.96h2.97c.5,0,.94.06,1.32.17.38.11.68.29.9.55.22.25.33.6.33,1.03Zm-1.07.12c0-.33-.12-.58-.36-.74s-.64-.24-1.19-.24h-1.85v2h1.66c.57,0,1-.08,1.29-.25.29-.17.44-.42.44-.77Zm.21,3.06c0-.41-.16-.71-.47-.89-.31-.18-.76-.27-1.36-.27h-1.78v2.34h1.81c.58,0,1.03-.09,1.34-.27.31-.18.46-.48.46-.9Z" style="fill: #6f6f6f; stroke-width: 0px;"/>
    <path d="m273.1,111.76c0,.57-.07,1.08-.22,1.53-.15.45-.36.83-.64,1.14s-.62.54-1.01.71-.84.24-1.34.24c-.46,0-.89-.08-1.28-.24-.39-.16-.72-.4-1-.71-.28-.31-.5-.69-.65-1.14-.15-.45-.23-.96-.23-1.53,0-.76.13-1.41.39-1.95.26-.54.63-.94,1.11-1.23.48-.28,1.05-.42,1.72-.42s1.19.14,1.67.43c.48.28.85.69,1.11,1.23.26.54.4,1.18.4,1.94Zm-5.29,0c0,.56.07,1.04.22,1.45.15.41.38.73.69.95.31.22.71.34,1.19.34s.88-.11,1.19-.34c.31-.22.54-.54.69-.95.15-.41.22-.9.22-1.45s-.07-1.03-.22-1.44c-.15-.4-.38-.72-.69-.94-.31-.22-.71-.33-1.2-.33-.72,0-1.25.24-1.59.72-.34.48-.5,1.14-.5,1.99Z" style="fill: #6f6f6f; stroke-width: 0px;"/>
  </g>
</svg>