<?xml version="1.0" encoding="UTF-8"?>
<svg id="_Слой_1" data-name=" Слой 1" xmlns="http://www.w3.org/2000/svg" width="279.8" height="128" viewBox="0 0 279.8 128">
  <path d="m119.4,64h16.5c5.3,0,8,2.7,8,8h0c0,5.3,2.7,8,8,8h16.5-16.5c-5.3,0-8-2.7-8-8h0c0-5.3-2.7-8-8-8h-16.5m10-4v8m39,8l-10,4,10,4" style="fill: none; stroke: #d3d3d3;"/>
  <rect y="18.8" width="119.8" height="32" style="fill: #79ad51; stroke-width: 0px;"/>
  <g style="isolation: isolate;">
    <g style="isolation: isolate;">
      <path d="m11.16,38.06v-9.28h7.34v9.28h-1.96v-7.64h-3.42v7.64h-1.97Z" style="fill: #fff; stroke-width: 0px;"/>
      <path d="m27.14,34.5c0,.59-.08,1.12-.24,1.57-.16.46-.39.84-.69,1.16-.3.32-.67.55-1.09.71-.43.16-.91.24-1.44.24-.5,0-.96-.08-1.37-.24s-.78-.4-1.08-.71c-.31-.32-.54-.7-.71-1.16-.17-.46-.25-.98-.25-1.57,0-.79.14-1.45.42-2s.68-.96,1.19-1.24c.52-.28,1.13-.43,1.85-.43.67,0,1.25.14,1.77.43.51.28.92.7,1.21,1.24s.44,1.21.44,2Zm-4.91,0c0,.46.05.86.15,1.17s.26.56.48.72c.22.16.5.24.84.24s.62-.08.83-.24c.21-.16.37-.4.47-.72s.15-.71.15-1.17-.05-.86-.15-1.17c-.1-.31-.26-.54-.47-.7s-.5-.23-.84-.23c-.51,0-.88.17-1.11.53-.23.35-.35.88-.35,1.58Z" style="fill: #fff; stroke-width: 0px;"/>
      <path d="m33.39,30.96h2.13l-2.81,3.4,3.06,3.69h-2.2l-2.9-3.6v3.6h-1.94v-7.1h1.94v3.45l2.72-3.45Z" style="fill: #fff; stroke-width: 0px;"/>
      <path d="m35.77,30.96h2.12l1.34,3.99c.04.13.08.26.11.39.03.13.05.27.08.41.02.14.04.29.05.44h.04c.03-.23.06-.44.1-.64.04-.2.1-.4.17-.59l1.31-3.99h2.08l-3,8c-.18.49-.42.9-.71,1.23s-.63.58-1.01.74c-.38.17-.79.25-1.25.25-.22,0-.41-.01-.57-.04-.16-.02-.3-.05-.41-.07v-1.54c.09.02.2.04.34.06.14.02.28.03.43.03.27,0,.5-.06.7-.17.19-.12.36-.27.49-.46.13-.19.24-.4.31-.63l.11-.35-2.82-7.05Z" style="fill: #fff; stroke-width: 0px;"/>
      <path d="m50.63,30.96v7.1h-1.94v-5.64h-2.57v5.64h-1.94v-7.1h6.45Z" style="fill: #fff; stroke-width: 0px;"/>
      <path d="m55.57,30.82c.95,0,1.68.21,2.19.62.51.42.76,1.05.76,1.89v4.73h-1.35l-.38-.96h-.05c-.2.25-.41.46-.62.62-.21.16-.46.28-.73.36-.28.08-.61.11-1,.11-.42,0-.79-.08-1.13-.24s-.59-.41-.78-.74-.29-.75-.29-1.27c0-.75.26-1.31.79-1.67.53-.36,1.32-.56,2.38-.59l1.23-.04v-.31c0-.37-.1-.65-.29-.82-.2-.17-.47-.26-.81-.26s-.68.05-1.01.15-.66.22-.99.37l-.64-1.31c.38-.2.8-.36,1.27-.47.47-.11.95-.17,1.45-.17Zm1.03,3.95l-.75.03c-.63.02-1.06.13-1.3.34-.24.21-.37.48-.37.82,0,.3.09.51.26.63.17.12.4.19.68.19.42,0,.77-.12,1.05-.37.29-.25.43-.59.43-1.05v-.58Z" style="fill: #fff; stroke-width: 0px;"/>
      <path d="m66.38,32.42h-2.32v5.64h-1.94v-5.64h-2.33v-1.45h6.59v1.45Z" style="fill: #fff; stroke-width: 0px;"/>
      <path d="m70.63,30.83c.66,0,1.22.13,1.7.38.47.25.84.62,1.1,1.09.26.48.39,1.06.39,1.75v.94h-4.58c.02.55.19.97.49,1.29.31.31.73.47,1.28.47.45,0,.87-.05,1.24-.14.38-.09.76-.23,1.16-.42v1.5c-.35.17-.72.3-1.1.38-.38.08-.85.12-1.39.12-.71,0-1.34-.13-1.89-.39s-.98-.66-1.29-1.2c-.31-.54-.47-1.21-.47-2.03s.14-1.52.42-2.07c.28-.55.67-.97,1.18-1.24.5-.28,1.09-.42,1.76-.42Zm.01,1.38c-.38,0-.69.12-.94.36-.25.24-.39.62-.43,1.14h2.72c0-.29-.06-.54-.16-.77-.1-.22-.25-.4-.44-.53-.2-.13-.45-.2-.75-.2Z" style="fill: #fff; stroke-width: 0px;"/>
      <path d="m81.74,38.06h-1.94v-5.64h-1.78c-.09,1.04-.19,1.93-.32,2.66-.12.73-.28,1.33-.47,1.79s-.43.79-.71,1.01c-.28.21-.63.32-1.05.32-.23,0-.43-.02-.61-.05-.18-.03-.34-.08-.49-.15v-1.55c.09.04.19.07.3.09.11.02.21.04.32.04.12,0,.24-.05.35-.15.11-.1.21-.26.31-.5.1-.24.19-.57.28-.99.09-.42.17-.96.24-1.61.07-.65.14-1.43.2-2.35h5.37v7.1Z" style="fill: #fff; stroke-width: 0px;"/>
      <path d="m85.64,30.96v2.81c0,.14,0,.33-.02.54,0,.22-.02.44-.04.66-.02.22-.03.42-.05.6-.02.18-.03.3-.04.36l3.28-4.98h2.33v7.1h-1.87v-2.83c0-.23,0-.49.03-.77.02-.28.04-.55.06-.8.02-.25.04-.44.04-.57l-3.26,4.96h-2.32v-7.1h1.87Z" style="fill: #fff; stroke-width: 0px;"/>
    </g>
  </g>
  <rect y="50.8" width="119.8" height="32" style="fill: #f2f2f2; stroke-width: 0px;"/>
  <g style="isolation: isolate;">
    <g style="isolation: isolate;">
      <path d="m11.26,70.06v-9.28h1.08v9.28h-1.08Z" style="fill: #6f6f6f; stroke-width: 0px;"/>
      <path d="m22.26,65.33c0,1.04-.19,1.92-.57,2.62s-.93,1.23-1.65,1.58-1.6.53-2.62.53h-2.52v-9.28h2.8c.94,0,1.76.17,2.44.52.68.34,1.21.85,1.58,1.53.37.67.55,1.51.55,2.5Zm-1.14.04c0-.83-.14-1.52-.42-2.06s-.68-.94-1.22-1.21-1.19-.4-1.96-.4h-1.55v7.43h1.31c1.28,0,2.24-.32,2.88-.95.64-.63.96-1.57.96-2.82Z" style="fill: #6f6f6f; stroke-width: 0px;"/>
    </g>
  </g>
  <rect y="82.8" width="119.8" height="32" style="fill: #f2f2f2; stroke-width: 0px;"/>
  <g style="isolation: isolate;">
    <g style="isolation: isolate;">
      <path d="m11.27,92.78h1.01v5.36c0,.2,0,.42,0,.66,0,.24-.01.47-.02.7,0,.23-.02.44-.03.62s-.02.33-.03.43h.05l5.17-7.78h1.19v9.28h-1.01v-5.3c0-.22,0-.46.01-.71,0-.25.02-.5.03-.73.01-.24.02-.45.04-.64s.02-.33.03-.43h-.06l-5.17,7.82h-1.19v-9.28Z" style="fill: #6f6f6f; stroke-width: 0px;"/>
      <path d="m28.32,95.1v6.96h-.95v-4.53c0-.19,0-.38.02-.57s.02-.39.04-.58h-.04l-2.31,5.68h-.89l-2.25-5.68h-.04c.01.2.02.39.03.58,0,.19,0,.39,0,.61v4.49h-.96v-6.96h1.42l2.25,5.69,2.28-5.69h1.41Z" style="fill: #6f6f6f; stroke-width: 0px;"/>
      <path d="m30.85,102.06h-1.23l2.01-2.93c-.29-.06-.56-.17-.81-.33-.25-.15-.45-.37-.61-.64s-.23-.61-.23-1.01c0-.67.22-1.18.67-1.53.45-.35,1.04-.52,1.77-.52h3.08v6.96h-1.05v-2.79h-1.76l-1.82,2.79Zm.15-4.9c0,.42.15.72.44.92.3.2.72.3,1.27.3h1.73v-2.4h-1.91c-.54,0-.93.11-1.17.33-.24.22-.36.5-.36.85Z" style="fill: #6f6f6f; stroke-width: 0px;"/>
      <path d="m42.09,95.1v4.37c0,.08,0,.19,0,.33,0,.13-.01.28-.02.43,0,.15-.02.29-.02.43,0,.14-.01.25-.02.34l3.8-5.9h1.29v6.96h-.98v-4.27c0-.14,0-.31,0-.52,0-.21.01-.42.02-.62,0-.21.01-.37.02-.48l-3.78,5.89h-1.3v-6.96h1Z" style="fill: #6f6f6f; stroke-width: 0px;"/>
      <path d="m56.77,92.18v2.82c.69.06,1.29.24,1.8.54.51.3.91.7,1.19,1.22.28.51.42,1.12.42,1.83s-.14,1.3-.41,1.82c-.27.52-.66.92-1.17,1.23-.51.3-1.12.48-1.84.54v3.02h-1.03v-3.02c-.69-.05-1.29-.23-1.8-.52-.51-.3-.91-.71-1.19-1.22-.28-.52-.42-1.13-.42-1.83s.14-1.32.41-1.83c.27-.51.67-.92,1.18-1.22.51-.3,1.13-.48,1.86-.53v-2.82h1Zm-1,3.69c-.54.05-.98.18-1.33.41-.35.22-.6.53-.77.91s-.25.85-.25,1.38.08,1,.25,1.39c.17.39.43.69.77.92.35.22.79.36,1.32.41v-5.42Zm1,.01v5.41c.53-.05.97-.2,1.32-.43.34-.23.6-.54.77-.92s.25-.84.25-1.37c0-.8-.19-1.43-.58-1.89-.38-.46-.97-.72-1.76-.8Z" style="fill: #6f6f6f; stroke-width: 0px;"/>
      <path d="m64.63,94.99c.83,0,1.45.19,1.85.56.4.37.6.97.6,1.78v4.73h-.77l-.2-1.03h-.05c-.19.25-.4.47-.61.64-.21.17-.46.3-.73.39-.28.09-.62.13-1.02.13-.42,0-.8-.07-1.13-.22-.33-.15-.59-.37-.77-.67-.19-.3-.28-.68-.28-1.14,0-.69.28-1.23.83-1.6.55-.37,1.39-.58,2.51-.61l1.2-.05v-.43c0-.6-.13-1.02-.39-1.26-.26-.24-.62-.36-1.09-.36-.36,0-.71.05-1.04.16-.33.11-.64.23-.94.38l-.32-.8c.31-.16.67-.3,1.08-.41.41-.11.83-.17,1.28-.17Zm1.41,3.64l-1.06.04c-.87.03-1.48.17-1.83.42s-.53.6-.53,1.06c0,.4.12.69.36.88s.56.29.96.29c.62,0,1.12-.17,1.52-.51s.59-.86.59-1.54v-.64Z" style="fill: #6f6f6f; stroke-width: 0px;"/>
      <path d="m76.6,95.1v6.96h-.95v-4.53c0-.19,0-.38.02-.57.01-.19.02-.39.04-.58h-.04l-2.31,5.68h-.9l-2.25-5.68h-.04c.01.2.02.39.03.58,0,.19,0,.39,0,.61v4.49h-.96v-6.96h1.42l2.25,5.69,2.28-5.69h1.41Z" style="fill: #6f6f6f; stroke-width: 0px;"/>
      <path d="m79.79,95.1v4.37c0,.08,0,.19,0,.33,0,.13-.01.28-.02.43,0,.15-.02.29-.02.43,0,.14-.01.25-.02.34l3.8-5.9h1.29v6.96h-.98v-4.27c0-.14,0-.31,0-.52,0-.21.01-.42.02-.62,0-.21.01-.37.02-.48l-3.78,5.89h-1.3v-6.96h1Z" style="fill: #6f6f6f; stroke-width: 0px;"/>
      <path d="m92.27,102.06h-1.07v-6.07h-2.11c-.08,1.1-.19,2.03-.32,2.81-.13.78-.29,1.42-.48,1.91-.19.49-.42.85-.7,1.08-.27.23-.6.35-.97.35-.11,0-.22,0-.32-.02s-.19-.03-.26-.06v-.8c.05.02.11.03.17.04.06,0,.13.01.19.01.19,0,.36-.08.52-.24s.3-.4.43-.72c.13-.32.24-.73.35-1.22s.19-1.07.27-1.75c.08-.67.15-1.43.21-2.28h4.1v6.96Z" style="fill: #6f6f6f; stroke-width: 0px;"/>
      <path d="m95.49,95.1v4.37c0,.08,0,.19,0,.33,0,.13-.01.28-.02.43,0,.15-.02.29-.02.43,0,.14-.01.25-.02.34l3.8-5.9h1.29v6.96h-.98v-4.27c0-.14,0-.31,0-.52,0-.21.01-.42.02-.62,0-.21.01-.37.02-.48l-3.78,5.89h-1.3v-6.96h1Z" style="fill: #6f6f6f; stroke-width: 0px;"/>
      <path d="m103.09,102.06h-1.23l2.01-2.93c-.29-.06-.56-.17-.81-.33-.25-.15-.45-.37-.61-.64-.15-.27-.23-.61-.23-1.01,0-.67.22-1.18.67-1.53.45-.35,1.04-.52,1.77-.52h3.08v6.96h-1.05v-2.79h-1.76l-1.82,2.79Zm.15-4.9c0,.42.15.72.44.92.3.2.72.3,1.27.3h1.73v-2.4h-1.91c-.54,0-.93.11-1.17.33s-.36.5-.36.85Z" style="fill: #6f6f6f; stroke-width: 0px;"/>
    </g>
  </g>
  <rect x="168.4" width="111.4" height="32" style="fill: #79ad51; stroke-width: 0px;"/>
  <g style="isolation: isolate;">
    <g style="isolation: isolate;">
      <path d="m185.94,12.14c0,.62-.22,1.12-.67,1.5s-1.01.62-1.69.72v.04c.85.08,1.5.32,1.96.71.46.38.69.89.69,1.5,0,.54-.15,1.02-.44,1.44-.3.42-.73.74-1.31.98-.58.24-1.3.35-2.15.35-.7,0-1.33-.04-1.87-.13s-1.01-.21-1.41-.37v-1.65c.27.13.57.24.91.33.34.09.68.16,1.02.21.35.05.67.07.96.07.82,0,1.42-.12,1.79-.36.37-.24.56-.57.56-1.01s-.27-.77-.81-.97c-.54-.2-1.26-.3-2.17-.3h-.87v-1.54h.78c.74,0,1.31-.05,1.72-.14.41-.09.69-.23.86-.41s.24-.4.24-.65c0-.32-.14-.57-.42-.76-.28-.19-.71-.28-1.26-.28-.48,0-.93.07-1.35.21s-.81.32-1.17.55l-.86-1.31c.32-.21.66-.39,1.02-.54.36-.15.76-.27,1.19-.35.43-.08.91-.12,1.45-.12.7,0,1.29.1,1.79.3s.88.47,1.14.82c.26.34.4.74.4,1.19Z" style="fill: #fff; stroke-width: 0px;"/>
      <path d="m190.71,12.01c.95,0,1.68.21,2.19.62.51.42.76,1.05.76,1.89v4.73h-1.35l-.37-.96h-.05c-.2.25-.41.46-.62.62-.21.16-.46.28-.73.36-.27.08-.61.11-1,.11-.42,0-.79-.08-1.13-.24-.33-.16-.59-.41-.78-.74s-.29-.75-.29-1.27c0-.75.26-1.31.79-1.67.53-.36,1.32-.56,2.38-.59l1.23-.04v-.31c0-.37-.1-.65-.29-.82-.19-.17-.46-.26-.81-.26s-.68.05-1.01.15-.66.22-.99.37l-.64-1.31c.38-.2.8-.36,1.27-.47s.95-.17,1.45-.17Zm1.03,3.95l-.75.03c-.63.02-1.06.13-1.3.34-.24.21-.36.48-.36.82,0,.3.09.51.26.63.17.12.4.19.68.19.41,0,.76-.12,1.05-.37.29-.25.43-.59.43-1.05v-.58Z" style="fill: #fff; stroke-width: 0px;"/>
      <path d="m200.3,12.15h2.13l-2.81,3.4,3.06,3.69h-2.2l-2.9-3.6v3.6h-1.94v-7.1h1.94v3.45l2.72-3.45Z" style="fill: #fff; stroke-width: 0px;"/>
      <path d="m206.61,12.01c.95,0,1.68.21,2.19.62.51.42.76,1.05.76,1.89v4.73h-1.35l-.38-.96h-.05c-.2.25-.41.46-.62.62-.21.16-.46.28-.73.36-.28.08-.61.11-1,.11-.42,0-.79-.08-1.13-.24s-.59-.41-.78-.74-.29-.75-.29-1.27c0-.75.26-1.31.79-1.67.53-.36,1.32-.56,2.38-.59l1.23-.04v-.31c0-.37-.1-.65-.29-.82-.2-.17-.47-.26-.81-.26s-.68.05-1.01.15-.66.22-.99.37l-.64-1.31c.38-.2.8-.36,1.27-.47.47-.11.95-.17,1.45-.17Zm1.03,3.95l-.75.03c-.63.02-1.06.13-1.3.34-.24.21-.37.48-.37.82,0,.3.09.51.26.63.17.12.4.19.68.19.42,0,.77-.12,1.05-.37.29-.25.43-.59.43-1.05v-.58Z" style="fill: #fff; stroke-width: 0px;"/>
      <path d="m214.14,12.02c.51,0,.99.07,1.43.2.44.13.8.34,1.08.62.27.28.41.63.41,1.07s-.13.77-.39,1.02c-.26.25-.6.43-1.03.54v.06c.3.07.57.17.82.29s.44.29.58.51c.14.22.22.5.22.85,0,.39-.12.76-.38,1.09-.25.33-.63.6-1.15.8-.51.2-1.17.3-1.98.3-.38,0-.74-.02-1.08-.05-.34-.03-.64-.08-.92-.15s-.52-.14-.73-.24v-1.6c.29.13.65.26,1.08.37.43.11.89.17,1.38.17.35,0,.67-.03.96-.08.29-.05.51-.14.68-.26.17-.12.25-.28.25-.49,0-.19-.07-.35-.22-.47-.15-.12-.37-.22-.67-.28-.3-.06-.68-.09-1.13-.09h-.75v-1.34h.71c.64,0,1.14-.05,1.49-.16.35-.11.53-.3.53-.58,0-.23-.11-.4-.34-.51-.22-.11-.59-.17-1.11-.17-.33,0-.7.04-1.1.12-.4.08-.78.19-1.13.33l-.57-1.35c.41-.16.86-.28,1.34-.38.48-.1,1.05-.15,1.72-.15Z" style="fill: #fff; stroke-width: 0px;"/>
      <path d="m218.77,19.25v-7.1h1.94v2.74h.93c.72,0,1.32.08,1.79.23s.82.38,1.05.7c.23.31.34.7.34,1.17s-.11.85-.32,1.19c-.21.34-.55.6-1,.79s-1.06.28-1.8.28h-2.94Zm1.94-1.34h.9c.38,0,.69-.07.93-.21s.36-.37.36-.69c0-.28-.11-.47-.33-.6-.22-.12-.55-.18-.98-.18h-.87v1.68Zm5.15,1.34v-7.1h1.94v7.1h-1.94Z" style="fill: #fff; stroke-width: 0px;"/>
    </g>
  </g>
  <rect x="168.4" y="32" width="111.4" height="32" style="fill: #f2f2f2; stroke-width: 0px;"/>
  <g style="isolation: isolate;">
    <g style="isolation: isolate;">
      <path d="m179.63,51.25v-9.28h1.08v9.28h-1.08Z" style="fill: #6f6f6f; stroke-width: 0px;"/>
      <path d="m190.63,46.52c0,1.04-.19,1.92-.57,2.62s-.93,1.23-1.65,1.58-1.6.53-2.62.53h-2.52v-9.28h2.8c.94,0,1.76.17,2.44.52.68.34,1.21.85,1.58,1.53.37.67.55,1.51.55,2.5Zm-1.14.04c0-.83-.14-1.52-.42-2.06s-.68-.94-1.22-1.21-1.19-.4-1.96-.4h-1.55v7.43h1.31c1.28,0,2.24-.32,2.88-.95.64-.63.96-1.57.96-2.82Z" style="fill: #6f6f6f; stroke-width: 0px;"/>
    </g>
  </g>
  <rect x="168.4" y="64" width="111.4" height="32" style="fill: #f2f2f2; stroke-width: 0px;"/>
  <g style="isolation: isolate;">
    <g style="isolation: isolate;">
      <path d="m179.63,83.25v-9.28h1.08v9.28h-1.08Z" style="fill: #6f6f6f; stroke-width: 0px;"/>
      <path d="m190.63,78.52c0,1.04-.19,1.92-.57,2.62s-.93,1.23-1.65,1.58-1.6.53-2.62.53h-2.52v-9.28h2.8c.94,0,1.76.17,2.44.52.68.34,1.21.85,1.58,1.53.37.67.55,1.51.55,2.5Zm-1.14.04c0-.83-.14-1.52-.42-2.06s-.68-.94-1.22-1.21-1.19-.4-1.96-.4h-1.55v7.43h1.31c1.28,0,2.24-.32,2.88-.95.64-.63.96-1.57.96-2.82Z" style="fill: #6f6f6f; stroke-width: 0px;"/>
      <path d="m201.74,76.29v6.96h-1.06v-6.05h-3.71v6.05h-1.06v-6.96h5.83Z" style="fill: #6f6f6f; stroke-width: 0px;"/>
      <path d="m209.97,79.76c0,.57-.07,1.08-.22,1.53-.15.45-.36.83-.64,1.14s-.62.54-1.01.71-.84.24-1.34.24c-.46,0-.89-.08-1.28-.24-.39-.16-.72-.4-1-.71-.28-.31-.5-.69-.65-1.14-.15-.45-.23-.96-.23-1.53,0-.76.13-1.41.39-1.95.26-.54.63-.94,1.11-1.23.48-.28,1.05-.42,1.72-.42s1.19.14,1.67.43c.48.28.85.69,1.11,1.23.26.54.4,1.18.4,1.94Zm-5.29,0c0,.56.07,1.04.22,1.45.15.41.38.73.69.95.31.22.71.34,1.19.34s.88-.11,1.19-.34c.31-.22.54-.54.69-.95.15-.41.22-.9.22-1.45s-.07-1.03-.22-1.44c-.15-.4-.38-.72-.69-.94-.31-.22-.71-.33-1.2-.33-.72,0-1.25.24-1.59.72-.34.48-.5,1.14-.5,1.99Z" style="fill: #6f6f6f; stroke-width: 0px;"/>
      <path d="m215.85,76.29h1.16l-3,3.36,3.24,3.6h-1.24l-3.16-3.53v3.53h-1.06v-6.96h1.06v3.38l3-3.38Z" style="fill: #6f6f6f; stroke-width: 0px;"/>
      <path d="m217.41,76.29h1.13l1.54,4.04c.09.24.17.46.25.68s.14.43.2.62c.06.2.11.39.14.58h.04c.06-.21.14-.49.25-.83.11-.34.23-.7.36-1.06l1.45-4.03h1.14l-3.03,7.98c-.16.43-.35.8-.56,1.12-.21.32-.47.56-.78.73-.3.17-.67.26-1.1.26-.2,0-.38-.01-.53-.03s-.28-.05-.39-.08v-.84c.09.02.21.04.34.06.13.02.27.03.42.03.26,0,.49-.05.68-.15.19-.1.36-.25.5-.43.14-.19.26-.42.36-.68l.38-.98-2.79-6.97Z" style="fill: #6f6f6f; stroke-width: 0px;"/>
      <path d="m230.85,76.29v6.96h-1.06v-6.05h-3.71v6.05h-1.06v-6.96h5.83Z" style="fill: #6f6f6f; stroke-width: 0px;"/>
      <path d="m235.69,76.18c.83,0,1.45.19,1.85.56.4.37.6.97.6,1.78v4.73h-.77l-.2-1.03h-.05c-.2.25-.4.47-.61.64-.21.17-.46.3-.73.39s-.62.13-1.02.13c-.42,0-.8-.07-1.13-.22-.33-.15-.59-.37-.77-.67-.19-.3-.28-.68-.28-1.14,0-.69.27-1.23.83-1.6.55-.37,1.39-.58,2.51-.61l1.2-.05v-.43c0-.6-.13-1.02-.39-1.26-.26-.24-.62-.36-1.09-.36-.36,0-.71.05-1.04.16-.33.11-.64.23-.94.38l-.32-.8c.31-.16.67-.3,1.08-.41.41-.11.83-.17,1.28-.17Zm1.41,3.64l-1.06.04c-.87.03-1.48.17-1.83.42s-.53.6-.53,1.06c0,.4.12.69.36.88s.56.29.96.29c.62,0,1.12-.17,1.52-.51s.59-.86.59-1.54v-.64Z" style="fill: #6f6f6f; stroke-width: 0px;"/>
      <path d="m245.05,77.19h-2.29v6.06h-1.04v-6.06h-2.26v-.89h5.59v.89Z" style="fill: #6f6f6f; stroke-width: 0px;"/>
      <path d="m249.1,76.17c.59,0,1.1.13,1.52.39.42.26.75.63.97,1.1.22.47.34,1.02.34,1.65v.65h-4.8c.01.82.22,1.44.61,1.87.39.43.95.64,1.66.64.44,0,.83-.04,1.17-.12.34-.08.69-.2,1.05-.36v.93c-.35.16-.7.27-1.04.34-.35.07-.75.11-1.22.11-.67,0-1.25-.14-1.75-.41-.5-.27-.88-.67-1.16-1.2-.27-.53-.41-1.18-.41-1.94s.13-1.4.38-1.95c.25-.55.61-.97,1.07-1.27.46-.3,1-.44,1.62-.44Zm-.01.86c-.56,0-1.01.18-1.35.55-.33.37-.53.88-.6,1.54h3.68c0-.42-.07-.78-.19-1.09s-.31-.56-.57-.74-.58-.26-.98-.26Z" style="fill: #6f6f6f; stroke-width: 0px;"/>
      <path d="m258.94,83.25h-1.07v-6.07h-2.11c-.08,1.1-.19,2.03-.32,2.81-.13.78-.29,1.42-.48,1.91s-.42.85-.7,1.08c-.27.23-.6.35-.97.35-.11,0-.22,0-.32-.02s-.19-.03-.26-.06v-.8c.06.02.11.03.17.04s.13.01.19.01c.19,0,.37-.08.52-.24s.3-.4.43-.72c.13-.32.24-.73.35-1.22s.19-1.07.27-1.75.15-1.43.21-2.28h4.1v6.96Z" style="fill: #6f6f6f; stroke-width: 0px;"/>
      <path d="m261.5,83.25h-1.23l2.01-2.93c-.29-.06-.56-.17-.81-.33-.25-.15-.45-.37-.61-.64s-.23-.61-.23-1.01c0-.67.22-1.18.67-1.53.45-.35,1.04-.52,1.77-.52h3.08v6.96h-1.05v-2.79h-1.76l-1.82,2.79Zm.15-4.9c0,.42.15.72.44.92.3.2.72.3,1.27.3h1.73v-2.4h-1.91c-.54,0-.93.11-1.17.33-.24.22-.36.5-.36.85Z" style="fill: #6f6f6f; stroke-width: 0px;"/>
    </g>
  </g>
  <rect x="168.4" y="96" width="111.4" height="32" style="fill: #f2f2f2; stroke-width: 0px;"/>
  <g style="isolation: isolate;">
    <g style="isolation: isolate;">
      <path d="m183.6,106.79c-.51,0-.97.09-1.38.26-.41.18-.76.43-1.04.76-.29.33-.5.73-.66,1.2s-.23,1-.23,1.59c0,.78.12,1.46.37,2.03.24.57.61,1.02,1.09,1.33.48.31,1.09.47,1.82.47.41,0,.8-.04,1.17-.11.37-.07.72-.16,1.07-.26v.94c-.34.13-.69.22-1.07.28-.37.06-.81.09-1.33.09-.94,0-1.73-.2-2.36-.59-.63-.39-1.11-.95-1.42-1.66-.32-.71-.47-1.56-.47-2.53,0-.7.1-1.34.3-1.93.2-.58.48-1.08.86-1.51.38-.42.84-.75,1.4-.98.55-.23,1.19-.35,1.9-.35.47,0,.92.05,1.36.14.44.09.83.23,1.18.4l-.43.91c-.3-.14-.62-.25-.97-.35-.35-.1-.74-.15-1.15-.15Z" style="fill: #6f6f6f; stroke-width: 0px;"/>
      <path d="m192.4,109.19h-2.29v6.06h-1.04v-6.06h-2.26v-.89h5.59v.89Z" style="fill: #6f6f6f; stroke-width: 0px;"/>
      <path d="m199.78,111.76c0,.57-.07,1.08-.22,1.53-.15.45-.36.83-.64,1.14s-.62.54-1.01.71-.84.24-1.34.24c-.46,0-.89-.08-1.28-.24-.39-.16-.72-.4-1-.71-.28-.31-.5-.69-.65-1.14-.15-.45-.23-.96-.23-1.53,0-.76.13-1.41.39-1.95.26-.54.63-.94,1.11-1.23.48-.28,1.05-.42,1.72-.42s1.19.14,1.67.43c.48.28.85.69,1.11,1.23.26.54.4,1.18.4,1.94Zm-5.29,0c0,.56.07,1.04.22,1.45.15.41.38.73.69.95.31.22.71.34,1.19.34s.88-.11,1.19-.34c.31-.22.54-.54.69-.95.15-.41.22-.9.22-1.45s-.07-1.03-.22-1.44c-.15-.4-.38-.72-.69-.94-.31-.22-.71-.33-1.2-.33-.72,0-1.25.24-1.59.72-.34.48-.5,1.14-.5,1.99Z" style="fill: #6f6f6f; stroke-width: 0px;"/>
      <path d="m202.6,108.29v4.37c0,.08,0,.19,0,.33,0,.13-.01.28-.02.43,0,.15-.02.29-.02.43,0,.14-.01.25-.02.34l3.8-5.9h1.29v6.96h-.98v-4.27c0-.14,0-.31,0-.52,0-.21.01-.42.02-.62,0-.21.01-.37.02-.48l-3.78,5.89h-1.3v-6.96h1Z" style="fill: #6f6f6f; stroke-width: 0px;"/>
      <path d="m217.21,108.29v6.96h-.95v-4.53c0-.19,0-.38.02-.57s.02-.39.04-.58h-.04l-2.31,5.68h-.89l-2.25-5.68h-.04c.01.2.02.39.03.58,0,.19,0,.39,0,.61v4.49h-.96v-6.96h1.42l2.25,5.69,2.28-5.69h1.41Z" style="fill: #6f6f6f; stroke-width: 0px;"/>
      <path d="m225.4,111.76c0,.57-.07,1.08-.22,1.53-.15.45-.36.83-.64,1.14s-.62.54-1.01.71-.84.24-1.34.24c-.46,0-.89-.08-1.28-.24-.39-.16-.72-.4-1-.71-.28-.31-.5-.69-.65-1.14-.15-.45-.23-.96-.23-1.53,0-.76.13-1.41.39-1.95.26-.54.63-.94,1.11-1.23.48-.28,1.05-.42,1.72-.42s1.19.14,1.67.43c.48.28.85.69,1.11,1.23.26.54.4,1.18.4,1.94Zm-5.29,0c0,.56.07,1.04.22,1.45.15.41.38.73.69.95.31.22.71.34,1.19.34s.88-.11,1.19-.34c.31-.22.54-.54.69-.95.15-.41.22-.9.22-1.45s-.07-1.03-.22-1.44c-.15-.4-.38-.72-.69-.94-.31-.22-.71-.33-1.2-.33-.72,0-1.25.24-1.59.72-.34.48-.5,1.14-.5,1.99Z" style="fill: #6f6f6f; stroke-width: 0px;"/>
      <path d="m230,115.38c-.63,0-1.18-.13-1.66-.39-.48-.26-.85-.65-1.12-1.18-.27-.53-.4-1.2-.4-2s.14-1.53.42-2.07.67-.93,1.17-1.19c.5-.26,1.06-.39,1.69-.39.35,0,.68.04,1.01.1.32.07.59.16.8.26l-.32.88c-.21-.08-.46-.16-.73-.23-.28-.07-.54-.1-.78-.1-.48,0-.88.1-1.2.31s-.56.51-.72.91c-.16.4-.24.9-.24,1.49s.08,1.04.23,1.44c.15.4.38.7.69.91.31.21.69.31,1.15.31.37,0,.7-.04,1-.12.3-.08.56-.17.81-.28v.94c-.23.12-.49.21-.78.27-.29.06-.62.1-1.02.1Z" style="fill: #6f6f6f; stroke-width: 0px;"/>
      <path d="m238.19,109.19h-2.29v6.06h-1.04v-6.06h-2.26v-.89h5.59v.89Z" style="fill: #6f6f6f; stroke-width: 0px;"/>
      <path d="m240.62,111.16h2.13c.59,0,1.09.07,1.48.22.39.15.69.37.88.66.2.29.3.65.3,1.08s-.1.81-.29,1.12c-.19.32-.49.56-.89.74-.4.17-.92.26-1.55.26h-3.13v-6.96h1.06v2.87Zm3.73,2.02c0-.43-.15-.72-.45-.89-.3-.17-.72-.25-1.27-.25h-2.01v2.35h2.02c.51,0,.92-.09,1.24-.28s.48-.5.48-.93Z" style="fill: #6f6f6f; stroke-width: 0px;"/>
    </g>
  </g>
</svg>